<svg width="24" height="24" viewBox="0 0 24 24" fill="none" xmlns="http://www.w3.org/2000/svg">
    <path fillRule="evenodd" clipRule="evenodd" d="M7.34498 4.01697C10.4388 3.67403 13.5611 3.67403 16.655 4.01697C18.368 4.20897 19.75 5.55797 19.951 7.27697C20.3179 10.4146 20.3179 13.5843 19.951 16.722C19.8493 17.5572 19.4684 18.3337 18.8702 18.9254C18.2719 19.5171 17.4913 19.8894 16.655 19.982C13.5612 20.326 10.4388 20.326 7.34498 19.982C6.50863 19.8894 5.72806 19.5171 5.1298 18.9254C4.53155 18.3337 4.15069 17.5572 4.04898 16.722C3.68208 13.5847 3.68208 10.4153 4.04898 7.27797C4.15065 6.44284 4.53136 5.66651 5.12941 5.07481C5.72747 4.48311 6.50781 4.11071 7.34398 4.01797L7.34498 4.01697ZM12 7.00697C12.1989 7.00697 12.3897 7.08599 12.5303 7.22664C12.671 7.36729 12.75 7.55806 12.75 7.75697V11.25H16.243C16.4419 11.25 16.6327 11.329 16.7733 11.4696C16.914 11.6103 16.993 11.8011 16.993 12C16.993 12.1989 16.914 12.3896 16.7733 12.5303C16.6327 12.671 16.4419 12.75 16.243 12.75H12.75V16.243C12.75 16.4419 12.671 16.6326 12.5303 16.7733C12.3897 16.914 12.1989 16.993 12 16.993C11.8011 16.993 11.6103 16.914 11.4697 16.7733C11.329 16.6326 11.25 16.4419 11.25 16.243V12.75H7.75698C7.55807 12.75 7.3673 12.671 7.22665 12.5303C7.086 12.3896 7.00698 12.1989 7.00698 12C7.00698 11.8011 7.086 11.6103 7.22665 11.4696C7.3673 11.329 7.55807 11.25 7.75698 11.25H11.25V7.75697C11.25 7.55806 11.329 7.36729 11.4697 7.22664C11.6103 7.08599 11.8011 7.00697 12 7.00697Z" fill="white"/>
</svg>
