<svg width="58" height="57" viewBox="0 0 58 57" fill="none" xmlns="http://www.w3.org/2000/svg">
    <rect y="0.666504" width="58" height="56.0003" rx="27" fill="#007369" fill-opacity="0.12"/>
    <path d="M13 25.467V31.8671C13 36.3926 13 38.6553 14.4059 40.0612C14.7536 40.4089 15.1538 40.6707 15.6277 40.8676C15.6169 40.7964 15.6068 40.7251 15.5972 40.6537C15.3998 39.1857 15.3999 37.3526 15.4 35.2249V22.2668V22.1088C15.3999 19.9813 15.3998 18.1481 15.5972 16.6801C15.6068 16.6087 15.6169 16.5374 15.6276 16.4663C15.1538 16.6633 14.7536 16.925 14.4059 17.2728C13 18.6787 13 20.9414 13 25.467Z" fill="#007369"/>
    <path d="M45 25.467V31.8671C45 36.3926 45 38.6553 43.5941 40.0612C43.2464 40.4089 42.8462 40.6707 42.3723 40.8676C42.383 40.7964 42.3933 40.7251 42.4029 40.6537C42.6002 39.1857 42.6002 37.3526 42.6 35.2249V22.1089C42.6002 19.9813 42.6002 18.1481 42.4029 16.6801C42.3933 16.6087 42.383 16.5374 42.3723 16.4663C42.8462 16.6633 43.2464 16.925 43.5941 17.2728C45 18.6787 45 20.9414 45 25.467Z" fill="#007369"/>
    <path fillRule="evenodd" clipRule="evenodd" d="M19.2059 14.0724C17.8 15.4783 17.8 17.7411 17.8 22.2666V35.0667C17.8 39.5922 17.8 41.8549 19.2059 43.2608C20.6118 44.6668 22.8746 44.6668 27.4001 44.6668H30.6002C35.1256 44.6668 37.3884 44.6668 38.7943 43.2608C40.2002 41.8549 40.2002 39.5922 40.2002 35.0667V22.2666C40.2002 17.7411 40.2002 15.4783 38.7943 14.0724C37.3884 12.6665 35.1256 12.6665 30.6002 12.6665H27.4001C22.8746 12.6665 20.6118 12.6665 19.2059 14.0724ZM23.0001 36.6667C23.0001 36.004 23.5374 35.4667 24.2001 35.4667H29.0001C29.6629 35.4667 30.2002 36.004 30.2002 36.6667C30.2002 37.3294 29.6629 37.8667 29.0001 37.8667H24.2001C23.5374 37.8667 23.0001 37.3294 23.0001 36.6667ZM24.2001 29.0666C23.5374 29.0666 23.0001 29.6039 23.0001 30.2667C23.0001 30.9294 23.5374 31.4667 24.2001 31.4667H33.8002C34.4629 31.4667 35.0002 30.9294 35.0002 30.2667C35.0002 29.6039 34.4629 29.0666 33.8002 29.0666H24.2001ZM23.0001 23.8666C23.0001 23.2039 23.5374 22.6666 24.2001 22.6666H33.8002C34.4629 22.6666 35.0002 23.2039 35.0002 23.8666C35.0002 24.5293 34.4629 25.0666 33.8002 25.0666H24.2001C23.5374 25.0666 23.0001 24.5293 23.0001 23.8666Z" fill="#007369"/>
</svg>
