<svg width="33" height="34" viewBox="0 0 33 34" fill="none" xmlns="http://www.w3.org/2000/svg">
<path opacity="0.5" d="M16.5 30.75C10.6664 30.75 7.74955 30.75 5.93728 28.7363C4.125 26.7228 4.125 23.4817 4.125 17C4.125 10.5182 4.125 7.27728 5.93728 5.26365C7.74955 3.25 10.6664 3.25 16.5 3.25C22.3336 3.25 25.2505 3.25 27.0627 5.26365C28.875 7.27728 28.875 10.5182 28.875 17C28.875 23.4817 28.875 26.7228 27.0627 28.7363C25.2505 30.75 22.3336 30.75 16.5 30.75Z" fill="#008F2B"/>
<path d="M20.6249 8.75H12.3749C11.7356 8.75 11.4159 8.75 11.1536 8.82028C10.4419 9.01099 9.88593 9.56693 9.69521 10.2787C9.62494 10.541 9.62494 10.8606 9.62494 11.5C9.62494 12.1394 9.62494 12.459 9.69521 12.7213C9.88593 13.4331 10.4419 13.989 11.1536 14.1797C11.4159 14.25 11.7356 14.25 12.3749 14.25H20.6249C21.2643 14.25 21.584 14.25 21.8462 14.1797C22.5581 13.989 23.114 13.4331 23.3047 12.7213C23.3749 12.459 23.3749 12.1394 23.3749 11.5C23.3749 10.8606 23.3749 10.541 23.3047 10.2787C23.114 9.56693 22.5581 9.01099 21.8462 8.82028C21.584 8.75 21.2643 8.75 20.6249 8.75Z" fill="#008F2B"/>
<path d="M10.9999 19.75C11.7593 19.75 12.3749 19.1344 12.3749 18.375C12.3749 17.6156 11.7593 17 10.9999 17C10.2406 17 9.62494 17.6156 9.62494 18.375C9.62494 19.1344 10.2406 19.75 10.9999 19.75Z" fill="#008F2B"/>
<path d="M10.9999 25.25C11.7593 25.25 12.3749 24.6344 12.3749 23.875C12.3749 23.1156 11.7593 22.5 10.9999 22.5C10.2406 22.5 9.62494 23.1156 9.62494 23.875C9.62494 24.6344 10.2406 25.25 10.9999 25.25Z" fill="#008F2B"/>
<path d="M16.5001 19.75C17.2595 19.75 17.8751 19.1344 17.8751 18.375C17.8751 17.6156 17.2595 17 16.5001 17C15.7406 17 15.1251 17.6156 15.1251 18.375C15.1251 19.1344 15.7406 19.75 16.5001 19.75Z" fill="#008F2B"/>
<path d="M16.5001 25.25C17.2595 25.25 17.8751 24.6344 17.8751 23.875C17.8751 23.1156 17.2595 22.5 16.5001 22.5C15.7406 22.5 15.1251 23.1156 15.1251 23.875C15.1251 24.6344 15.7406 25.25 16.5001 25.25Z" fill="#008F2B"/>
<path d="M22 19.75C22.7594 19.75 23.375 19.1344 23.375 18.375C23.375 17.6156 22.7594 17 22 17C21.2406 17 20.625 17.6156 20.625 18.375C20.625 19.1344 21.2406 19.75 22 19.75Z" fill="#008F2B"/>
<path d="M22 25.25C22.7594 25.25 23.375 24.6344 23.375 23.875C23.375 23.1156 22.7594 22.5 22 22.5C21.2406 22.5 20.625 23.1156 20.625 23.875C20.625 24.6344 21.2406 25.25 22 25.25Z" fill="#008F2B"/>
</svg>
