<svg width="34" height="34" viewBox="0 0 34 34" fill="none" xmlns="http://www.w3.org/2000/svg">
<path opacity="0.5" d="M16.6769 30.75C10.8432 30.75 7.92643 30.75 6.11416 28.7363C4.30188 26.7228 4.30188 23.4817 4.30188 17C4.30188 10.5182 4.30188 7.27728 6.11416 5.26365C7.92643 3.25 10.8432 3.25 16.6769 3.25C22.5105 3.25 25.4274 3.25 27.2396 5.26365C29.0519 7.27728 29.0519 10.5182 29.0519 17C29.0519 23.4817 29.0519 26.7228 27.2396 28.7363C25.4274 30.75 22.5105 30.75 16.6769 30.75Z" fill="#AC1A1A"/>
<path d="M20.8018 8.75H12.5518C11.9125 8.75 11.5928 8.75 11.3305 8.82028C10.6187 9.01099 10.0628 9.56693 9.87209 10.2787C9.80182 10.541 9.80182 10.8606 9.80182 11.5C9.80182 12.1394 9.80182 12.459 9.87209 12.7213C10.0628 13.4331 10.6187 13.989 11.3305 14.1797C11.5928 14.25 11.9125 14.25 12.5518 14.25H20.8018C21.4412 14.25 21.7609 14.25 22.0231 14.1797C22.7349 13.989 23.2908 13.4331 23.4816 12.7213C23.5518 12.459 23.5518 12.1394 23.5518 11.5C23.5518 10.8606 23.5518 10.541 23.4816 10.2787C23.2908 9.56693 22.7349 9.01099 22.0231 8.82028C21.7609 8.75 21.4412 8.75 20.8018 8.75Z" fill="#AC1A1A"/>
<path d="M11.1768 19.75C11.9362 19.75 12.5518 19.1344 12.5518 18.375C12.5518 17.6156 11.9362 17 11.1768 17C10.4174 17 9.80182 17.6156 9.80182 18.375C9.80182 19.1344 10.4174 19.75 11.1768 19.75Z" fill="#AC1A1A"/>
<path d="M11.1768 25.25C11.9362 25.25 12.5518 24.6344 12.5518 23.875C12.5518 23.1156 11.9362 22.5 11.1768 22.5C10.4174 22.5 9.80182 23.1156 9.80182 23.875C9.80182 24.6344 10.4174 25.25 11.1768 25.25Z" fill="#AC1A1A"/>
<path d="M16.6769 19.75C17.4364 19.75 18.0519 19.1344 18.0519 18.375C18.0519 17.6156 17.4364 17 16.6769 17C15.9175 17 15.3019 17.6156 15.3019 18.375C15.3019 19.1344 15.9175 19.75 16.6769 19.75Z" fill="#AC1A1A"/>
<path d="M16.6769 25.25C17.4364 25.25 18.0519 24.6344 18.0519 23.875C18.0519 23.1156 17.4364 22.5 16.6769 22.5C15.9175 22.5 15.3019 23.1156 15.3019 23.875C15.3019 24.6344 15.9175 25.25 16.6769 25.25Z" fill="#AC1A1A"/>
<path d="M22.1769 19.75C22.9363 19.75 23.5519 19.1344 23.5519 18.375C23.5519 17.6156 22.9363 17 22.1769 17C21.4175 17 20.8019 17.6156 20.8019 18.375C20.8019 19.1344 21.4175 19.75 22.1769 19.75Z" fill="#AC1A1A"/>
<path d="M22.1769 25.25C22.9363 25.25 23.5519 24.6344 23.5519 23.875C23.5519 23.1156 22.9363 22.5 22.1769 22.5C21.4175 22.5 20.8019 23.1156 20.8019 23.875C20.8019 24.6344 21.4175 25.25 22.1769 25.25Z" fill="#AC1A1A"/>
</svg>
