<svg width="33" height="34" viewBox="0 0 33 34" fill="none" xmlns="http://www.w3.org/2000/svg">
<path opacity="0.5" d="M16.5 30.75C10.6664 30.75 7.74955 30.75 5.93728 28.7363C4.125 26.7228 4.125 23.4817 4.125 17C4.125 10.5182 4.125 7.27728 5.93728 5.26365C7.74955 3.25 10.6664 3.25 16.5 3.25C22.3336 3.25 25.2505 3.25 27.0627 5.26365C28.875 7.27728 28.875 10.5182 28.875 17C28.875 23.4817 28.875 26.7228 27.0627 28.7363C25.2505 30.75 22.3336 30.75 16.5 30.75Z" fill="#2A87A7"/>
<path d="M20.625 8.75H12.375C11.7356 8.75 11.416 8.75 11.1537 8.82028C10.4419 9.01099 9.88599 9.56693 9.69528 10.2787C9.625 10.541 9.625 10.8606 9.625 11.5C9.625 12.1394 9.625 12.459 9.69528 12.7213C9.88599 13.4331 10.4419 13.989 11.1537 14.1797C11.416 14.25 11.7356 14.25 12.375 14.25H20.625C21.2644 14.25 21.5841 14.25 21.8463 14.1797C22.5581 13.989 23.114 13.4331 23.3047 12.7213C23.375 12.459 23.375 12.1394 23.375 11.5C23.375 10.8606 23.375 10.541 23.3047 10.2787C23.114 9.56693 22.5581 9.01099 21.8463 8.82028C21.5841 8.75 21.2644 8.75 20.625 8.75Z" fill="#2A87A7"/>
<path d="M11 19.75C11.7594 19.75 12.375 19.1344 12.375 18.375C12.375 17.6156 11.7594 17 11 17C10.2406 17 9.625 17.6156 9.625 18.375C9.625 19.1344 10.2406 19.75 11 19.75Z" fill="#2A87A7"/>
<path d="M11 25.25C11.7594 25.25 12.375 24.6344 12.375 23.875C12.375 23.1156 11.7594 22.5 11 22.5C10.2406 22.5 9.625 23.1156 9.625 23.875C9.625 24.6344 10.2406 25.25 11 25.25Z" fill="#2A87A7"/>
<path d="M16.5 19.75C17.2594 19.75 17.875 19.1344 17.875 18.375C17.875 17.6156 17.2594 17 16.5 17C15.7406 17 15.125 17.6156 15.125 18.375C15.125 19.1344 15.7406 19.75 16.5 19.75Z" fill="#2A87A7"/>
<path d="M16.5 25.25C17.2594 25.25 17.875 24.6344 17.875 23.875C17.875 23.1156 17.2594 22.5 16.5 22.5C15.7406 22.5 15.125 23.1156 15.125 23.875C15.125 24.6344 15.7406 25.25 16.5 25.25Z" fill="#2A87A7"/>
<path d="M22 19.75C22.7594 19.75 23.375 19.1344 23.375 18.375C23.375 17.6156 22.7594 17 22 17C21.2406 17 20.625 17.6156 20.625 18.375C20.625 19.1344 21.2406 19.75 22 19.75Z" fill="#2A87A7"/>
<path d="M22 25.25C22.7594 25.25 23.375 24.6344 23.375 23.875C23.375 23.1156 22.7594 22.5 22 22.5C21.2406 22.5 20.625 23.1156 20.625 23.875C20.625 24.6344 21.2406 25.25 22 25.25Z" fill="#2A87A7"/>
</svg>
