<svg width="105" height="105" viewBox="0 0 105 105" fill="none" xmlns="http://www.w3.org/2000/svg">
<path d="M95.792 21.771C95.792 28.9852 89.9439 34.8335 82.7295 34.8335C75.5151 34.8335 69.667 28.9852 69.667 21.771C69.667 14.5568 75.5151 8.7085 82.7295 8.7085C89.9439 8.7085 95.792 14.5568 95.792 21.771Z" fill="#004056"/>
<path opacity="0.5" d="M66.3346 11.0369C61.9168 9.52751 57.1791 8.7085 52.2502 8.7085C28.2028 8.7085 8.7085 28.2028 8.7085 52.2502C8.7085 59.2155 10.344 65.7986 13.2519 71.6371C14.0247 73.1885 14.2819 74.9619 13.8339 76.6361L11.2405 86.3289C10.1147 90.5363 13.964 94.3854 18.1716 93.2599L27.8641 90.6665C29.5385 90.2185 31.3119 90.4758 32.8634 91.2483C38.7016 94.1564 45.2848 95.7918 52.2502 95.7918C76.2973 95.7918 95.7918 76.2973 95.7918 52.2502C95.7918 47.3212 94.9728 42.5833 93.4632 38.1656C90.3805 40.1883 86.6921 41.3647 82.7293 41.3647C71.9079 41.3647 63.1356 32.5923 63.1356 21.771C63.1356 17.8081 64.3121 14.12 66.3346 11.0369Z" fill="#004056"/>
</svg>
