<svg width="22" height="22" viewBox="0 0 22 22" fill="none" xmlns="http://www.w3.org/2000/svg">
<path opacity="0.5" d="M18.6112 14.5436V9.22611C18.6112 6.71942 18.6112 5.46607 17.8324 4.68734C17.1514 4.00637 16.1075 3.92089 14.1799 3.91016H7.08994C5.16232 3.92089 4.1184 4.00637 3.43742 4.68734C2.65869 5.46607 2.65869 6.71942 2.65869 9.22611V14.5436C2.65869 17.0503 2.65869 18.3037 3.43742 19.0824C4.21615 19.8611 5.4695 19.8612 7.97619 19.8612H13.2937C15.8004 19.8612 17.0537 19.8611 17.8324 19.0824C18.6112 18.3037 18.6112 17.0503 18.6112 14.5436Z" fill="#C0C0C0"/>
<path d="M7.08984 3.46707C7.08984 2.73287 7.68502 2.1377 8.41922 2.1377H12.8505C13.5846 2.1377 14.1798 2.73287 14.1798 3.46707V4.35332C14.1798 5.08752 13.5846 5.6827 12.8505 5.6827H8.41922C7.68502 5.6827 7.08984 5.08752 7.08984 4.35332V3.46707Z" fill="#C0C0C0"/>
<path fillRule="evenodd" clipRule="evenodd" d="M5.53906 9.67104C5.53906 9.30395 5.83666 9.00635 6.20375 9.00635H15.0662C15.4333 9.00635 15.7309 9.30395 15.7309 9.67104C15.7309 10.0381 15.4333 10.3357 15.0662 10.3357H6.20375C5.83666 10.3357 5.53906 10.0381 5.53906 9.67104ZM6.42531 12.7729C6.42531 12.4058 6.72291 12.1082 7.09 12.1082H14.18C14.5471 12.1082 14.8447 12.4058 14.8447 12.7729C14.8447 13.14 14.5471 13.4376 14.18 13.4376H7.09C6.72291 13.4376 6.42531 13.14 6.42531 12.7729ZM7.31156 15.8748C7.31156 15.5077 7.60916 15.2101 7.97625 15.2101H13.2937C13.6608 15.2101 13.9584 15.5077 13.9584 15.8748C13.9584 16.2419 13.6608 16.5395 13.2937 16.5395H7.97625C7.60916 16.5395 7.31156 16.2419 7.31156 15.8748Z" fill="#C0C0C0"/>
</svg>
