<svg width="58" height="57" viewBox="0 0 58 57" fill="none" xmlns="http://www.w3.org/2000/svg">
    <rect y="0.666504" width="58" height="56" rx="27" fill="#0C1A20" fill-opacity="0.12"/>
    <path d="M35.0252 34.6684C35.2586 34.4864 35.4702 34.2748 35.8935 33.8514L41.17 28.5749C41.2975 28.4474 41.2391 28.2277 41.0687 28.1685C40.4459 27.9525 39.6356 27.5468 38.8778 26.7889C38.1199 26.031 37.7142 25.2208 37.4982 24.598C37.439 24.4275 37.2192 24.3691 37.0918 24.4967L31.8152 29.7732C31.3919 30.1965 31.1803 30.4081 30.9983 30.6414C30.7836 30.9168 30.5995 31.2145 30.4494 31.5297C30.322 31.7968 30.2274 32.0808 30.0382 32.6486L29.7935 33.3824L29.4046 34.549L29.0399 35.643C28.9468 35.9225 29.0195 36.2305 29.2278 36.4389C29.4362 36.6472 29.7442 36.7198 30.0236 36.6268L31.1176 36.2621L32.2843 35.8732L33.018 35.6285C33.5858 35.4393 33.8699 35.3446 34.137 35.2173C34.4522 35.0672 34.7499 34.883 35.0252 34.6684Z" fill="#0C1A20"/>
    <path d="M42.8221 26.9229C43.9483 25.7967 43.9483 23.9708 42.8221 22.8446C41.6959 21.7185 39.8701 21.7185 38.7438 22.8446L38.5742 23.0143C38.4105 23.178 38.3363 23.4066 38.3773 23.6345C38.403 23.7778 38.4506 23.9874 38.5374 24.2374C38.7109 24.7375 39.0385 25.394 39.6557 26.0111C40.2727 26.6283 40.9293 26.9559 41.4293 27.1293C41.6794 27.2161 41.8889 27.2637 42.0322 27.2895C42.2601 27.3304 42.4887 27.2563 42.6525 27.0925L42.8221 26.9229Z" fill="#0C1A20"/>
    <path fillRule="evenodd" clipRule="evenodd" d="M18.5621 16.8951C17 18.4572 17 20.9714 17 25.9997V31.333C17 36.3613 17 38.8755 18.5621 40.4375C20.1242 41.9997 22.6383 41.9997 27.6667 41.9997H30.3333C35.3616 41.9997 37.8759 41.9997 39.4379 40.4375C40.9749 38.9005 40.9996 36.4418 41 31.5731L37.2423 35.3309C36.8825 35.6907 36.588 35.9855 36.2553 36.2451C35.8655 36.5491 35.4437 36.8098 34.9975 37.0225C34.6165 37.2039 34.2212 37.3357 33.7384 37.4963L30.6561 38.5238C29.658 38.8565 28.5576 38.5967 27.8136 37.8527C27.0697 37.1087 26.8099 36.0083 27.1427 35.0102L27.5073 33.9163L28.1408 32.0158L28.17 31.9281C28.3308 31.4453 28.4624 31.0498 28.6439 30.6689C28.8565 30.2226 29.1172 29.8009 29.4213 29.4111C29.6808 29.0783 29.9756 28.7838 30.3356 28.4241L35.6775 23.0822L37.16 21.5997L37.3296 21.4301C38.2835 20.4762 39.5337 19.9994 40.784 19.9997C40.5823 18.6256 40.1921 17.6494 39.4379 16.8951C37.8759 15.333 35.3616 15.333 30.3333 15.333H27.6667C22.6383 15.333 20.1242 15.333 18.5621 16.8951ZM22.6667 24.6663C22.6667 24.1141 23.1144 23.6663 23.6667 23.6663H32.3333C32.8856 23.6663 33.3333 24.1141 33.3333 24.6663C33.3333 25.2186 32.8856 25.6663 32.3333 25.6663H23.6667C23.1144 25.6663 22.6667 25.2186 22.6667 24.6663ZM22.6667 29.9997C22.6667 29.4474 23.1144 28.9997 23.6667 28.9997H27C27.5523 28.9997 28 29.4474 28 29.9997C28 30.5519 27.5523 30.9997 27 30.9997H23.6667C23.1144 30.9997 22.6667 30.5519 22.6667 29.9997ZM22.6667 35.333C22.6667 34.7807 23.1144 34.333 23.6667 34.333H25.6667C26.2189 34.333 26.6667 34.7807 26.6667 35.333C26.6667 35.8853 26.2189 36.333 25.6667 36.333H23.6667C23.1144 36.333 22.6667 35.8853 22.6667 35.333Z" fill="#0C1A20"/>
</svg>
