<svg width="29" height="28" viewBox="0 0 29 28" fill="none" xmlns="http://www.w3.org/2000/svg">
    <circle cx="14.5825" cy="14" r="14" fill="#FBFBFE"/>
    <path opacity="0.4" d="M21.6241 16.623C21.6241 18.6574 19.9908 20.3053 17.9564 20.3126H17.9491H10.7231C8.69598 20.3126 7.04077 18.672 7.04077 16.6376V16.6303C7.04077 16.6303 7.04515 13.403 7.05098 11.7799C7.05171 11.4751 7.40171 11.3045 7.64015 11.4941C9.37265 12.8685 12.4709 15.3747 12.5095 15.4075C13.0272 15.8224 13.6835 16.0565 14.3543 16.0565C15.0251 16.0565 15.6814 15.8224 16.1991 15.3995C16.2378 15.374 19.2667 12.9429 21.0255 11.5458C21.2646 11.3555 21.6161 11.5261 21.6168 11.8302C21.6241 13.4409 21.6241 16.623 21.6241 16.623Z" fill="#505050"/>
    <path d="M21.242 9.13699C20.6106 7.94699 19.3681 7.18719 18.0002 7.18719H10.7231C9.35516 7.18719 8.11266 7.94699 7.48121 9.13699C7.33975 9.40313 7.40683 9.7349 7.64235 9.92303L13.0564 14.2535C13.4356 14.5598 13.895 14.7122 14.3543 14.7122C14.3572 14.7122 14.3594 14.7122 14.3616 14.7122C14.3638 14.7122 14.3667 14.7122 14.3689 14.7122C14.8283 14.7122 15.2877 14.5598 15.6668 14.2535L21.0809 9.92303C21.3164 9.7349 21.3835 9.40313 21.242 9.13699Z" fill="#505050"/>
</svg>
