<svg width="17" height="17" viewBox="0 0 17 17" fill="none" xmlns="http://www.w3.org/2000/svg">
<g clipPath="url(#clip0_28_2086)">
<path d="M6.88459 12.5813C7.66541 13.3627 8.93172 13.3631 9.71303 12.5822C9.71334 12.5819 9.71363 12.5817 9.71394 12.5813L11.8546 10.4407C12.1015 10.1676 12.0803 9.746 11.8072 9.49906C11.5529 9.26916 11.1658 9.26956 10.9119 9.5L8.96128 11.4513L8.96594 1.16669C8.96591 0.798469 8.66744 0.5 8.29925 0.5C7.93106 0.5 7.6326 0.798469 7.6326 1.16666L7.6266 11.4387L5.6866 9.5C5.4261 9.23969 5.00391 9.23984 4.74359 9.50034C4.48328 9.76084 4.48344 10.183 4.74394 10.4433L6.88459 12.5813Z" fill="#B8001F"/>
<path d="M15.6325 11.167C15.2643 11.167 14.9659 11.4655 14.9659 11.8336V14.5003C14.9659 14.8685 14.6674 15.167 14.2992 15.167H2.29919C1.93101 15.167 1.63254 14.8685 1.63254 14.5003V11.8337C1.63254 11.4655 1.33407 11.167 0.965882 11.167C0.597663 11.167 0.299194 11.4655 0.299194 11.8337V14.5003C0.299194 15.6049 1.19463 16.5003 2.29919 16.5003H14.2992C15.4038 16.5003 16.2992 15.6049 16.2992 14.5003V11.8337C16.2992 11.4655 16.0007 11.167 15.6325 11.167Z" fill="#B8001F"/>
</g>
<defs>
<clipPath id="clip0_28_2086">
<rect width="16" height="16" fill="white" transform="translate(0.299194 0.5)"/>
</clipPath>
</defs>
</svg>
