<svg width="54" height="55" viewBox="0 0 54 55" fill="none" xmlns="http://www.w3.org/2000/svg">
    <rect y="0.666504" width="54" height="54" rx="27" fill="#F2952F" fill-opacity="0.12"/>
    <path d="M21.166 17.5985C23.6684 16.5973 25.1611 16 27.0001 16C28.839 16 30.3318 16.5973 32.8342 17.5985L36.7935 19.1823C38.0662 19.6913 39.0971 20.1037 39.8047 20.4747C40.1629 20.6624 40.5098 20.8753 40.7774 21.1319C41.0523 21.3956 41.3334 21.7954 41.3334 22.3333C41.3334 22.8712 41.0523 23.2711 40.7774 23.5347C40.5098 23.7914 40.1629 24.0042 39.8047 24.192C39.0971 24.563 38.0662 24.9753 36.7935 25.4844L32.8342 27.0681C30.3318 28.0693 28.839 28.6667 27.0001 28.6667C25.1611 28.6667 23.6684 28.0693 21.166 27.0681L17.2067 25.4844C15.9339 24.9753 14.903 24.563 14.1954 24.192C13.8372 24.0042 13.4903 23.7914 13.2228 23.5347C12.9479 23.2711 12.6667 22.8712 12.6667 22.3333C12.6667 21.7954 12.9479 21.3956 13.2228 21.1319C13.4903 20.8753 13.8372 20.6624 14.1954 20.4747C14.903 20.1037 15.9339 19.6913 17.2067 19.1823L21.166 17.5985Z" fill="#F2952F"/>
    <path fillRule="evenodd" clipRule="evenodd" d="M14.3339 26.9219L14.3321 26.9201L14.3367 26.9241C14.3426 26.9293 14.3535 26.9387 14.3695 26.952C14.4015 26.9788 14.4538 27.0213 14.5263 27.0773C14.6713 27.1895 14.8971 27.3549 15.2036 27.5537C15.8168 27.9513 16.7522 28.4819 18.0097 28.9848L21.7544 30.4827C24.4542 31.5625 25.586 31.9999 26.9999 31.9999C28.4138 31.9999 29.5456 31.5625 32.2455 30.4827L35.99 28.9848C37.2476 28.4819 38.1831 27.9513 38.7962 27.5537C39.1027 27.3549 39.3286 27.1895 39.4735 27.0773C39.546 27.0213 39.5983 26.9788 39.6303 26.952C39.6463 26.9387 39.6572 26.9293 39.6631 26.9241L39.6659 26.9219C39.6666 26.9212 39.6674 26.9205 39.668 26.9199C40.0792 26.5535 40.7096 26.5885 41.0776 26.9988C41.4464 27.4099 41.4122 28.0421 41.001 28.4109L40.3332 27.6665C41.001 28.4109 41.0012 28.4107 41.001 28.4109L40.9991 28.4125L40.9968 28.4147L40.9906 28.4201L40.9723 28.4361C40.9575 28.4489 40.9375 28.4661 40.912 28.4872C40.8614 28.5296 40.7895 28.588 40.6964 28.6599C40.5104 28.8036 40.2398 29.0012 39.8844 29.2317C39.1736 29.6927 38.1231 30.2857 36.7328 30.8417L32.9882 32.3396C32.9364 32.3604 32.885 32.3809 32.834 32.4013C30.3316 33.4025 28.8388 33.9999 26.9999 33.9999C25.161 33.9999 23.6682 33.4025 21.1658 32.4013C21.1148 32.3809 21.0634 32.3604 21.0116 32.3396L17.267 30.8417C15.8767 30.2857 14.8262 29.6927 14.1154 29.2317C13.76 29.0012 13.4893 28.8036 13.3033 28.6599C13.2103 28.588 13.1385 28.5296 13.0877 28.4872C13.0624 28.4661 13.0423 28.4489 13.0275 28.4361L13.0092 28.4201L13.003 28.4147L13.0007 28.4125L12.9992 28.4113C12.999 28.4111 12.9988 28.4109 13.6666 27.6665L12.9992 28.4113C12.5881 28.0425 12.5534 27.4099 12.9222 26.9988C13.2902 26.5885 13.9209 26.5537 14.3321 26.9201M14.3319 32.2533C13.9207 31.8868 13.2902 31.9219 12.9222 32.3321L14.3319 32.2533ZM14.3319 32.2533L14.3367 32.2575C14.3426 32.2627 14.3535 32.272 14.3695 32.2853C14.4015 32.3121 14.4538 32.3547 14.5263 32.4107C14.6713 32.5228 14.8971 32.6883 15.2036 32.8871C15.8168 33.2847 16.7522 33.8151 18.0097 34.3181L21.7544 35.816C24.4542 36.8959 25.586 37.3332 26.9999 37.3332C28.4138 37.3332 29.5456 36.8959 32.2455 35.816L35.99 34.3181C37.2476 33.8151 38.1831 33.2847 38.7962 32.8871C39.1027 32.6883 39.3286 32.5228 39.4735 32.4107C39.546 32.3547 39.5983 32.3121 39.6303 32.2853C39.6463 32.272 39.6572 32.2627 39.6631 32.2575L39.6659 32.2552C39.6666 32.2545 39.6674 32.2539 39.668 32.2532C40.0792 31.8868 40.7096 31.9219 41.0776 32.3321C41.4464 32.7432 41.4122 33.3755 41.001 33.7443L40.3554 33.0245C41.001 33.7443 41.0012 33.744 41.001 33.7443L40.9991 33.7459L40.9968 33.748L40.9906 33.7535L40.9723 33.7695C40.9575 33.7823 40.9375 33.7995 40.912 33.8205C40.8614 33.8629 40.7895 33.9213 40.6964 33.9932C40.5104 34.1369 40.2398 34.3345 39.8844 34.5651C39.1736 35.026 38.1231 35.6191 36.7328 36.1751L32.9882 37.6729C32.9364 37.6937 32.885 37.7143 32.834 37.7347C30.3316 38.7359 28.8388 39.3332 26.9999 39.3332C25.161 39.3332 23.6682 38.7359 21.1658 37.7347C21.1148 37.7143 21.0634 37.6937 21.0116 37.6729L17.267 36.1751C15.8767 35.6191 14.8262 35.026 14.1154 34.5651C13.76 34.3345 13.4893 34.1369 13.3033 33.9932C13.2103 33.9213 13.1385 33.8629 13.0877 33.8205C13.0624 33.7995 13.0423 33.7823 13.0275 33.7695L13.0092 33.7535L13.003 33.748L13.0007 33.7459L12.9992 33.7447C12.999 33.7444 12.9988 33.7443 13.6666 32.9999L12.9992 33.7447C12.5881 33.3759 12.5534 32.7432 12.9222 32.3321" fill="#F2952F"/>
</svg>
