<svg width="35" height="34" viewBox="0 0 35 34" fill="none" xmlns="http://www.w3.org/2000/svg">
    <path opacity="0.4" d="M25.7279 15.4408V21.0606C25.7279 21.4259 25.7139 21.7771 25.6717 22.1143C25.3486 25.9077 23.1147 27.7903 18.9982 27.7903H18.4362C18.085 27.7903 17.7478 27.9589 17.5371 28.2399L15.8511 30.4878C15.1065 31.4853 13.8983 31.4853 13.1536 30.4878L11.4677 28.2399C11.285 28.0011 10.8776 27.7903 10.5685 27.7903H10.0066C5.52479 27.7903 3.27686 26.6804 3.27686 21.0606V15.4408C3.27686 11.3243 5.17355 9.09047 8.95286 8.76733C9.29005 8.72518 9.64128 8.71112 10.0066 8.71112H18.9982C23.48 8.71112 25.7279 10.9591 25.7279 15.4408Z" fill="#3180F7"/>
    <path d="M14.5037 19.9507C13.7169 19.9507 13.0988 19.3185 13.0988 18.5458C13.0988 17.773 13.731 17.1408 14.5037 17.1408C15.2764 17.1408 15.9086 17.773 15.9086 18.5458C15.9086 19.3185 15.2904 19.9507 14.5037 19.9507Z" fill="#3180F7"/>
    <path d="M19.4206 19.9507C18.6338 19.9507 18.0156 19.3185 18.0156 18.5458C18.0156 17.773 18.6479 17.1408 19.4206 17.1408C20.1933 17.1408 20.8255 17.773 20.8255 18.5458C20.8255 19.3185 20.1933 19.9507 19.4206 19.9507Z" fill="#3180F7"/>
    <path d="M9.60002 19.9507C8.81325 19.9507 8.19507 19.3185 8.19507 18.5458C8.19507 17.773 8.82729 17.1408 9.60002 17.1408C10.3727 17.1408 11.005 17.773 11.005 18.5458C11.005 19.3185 10.3727 19.9507 9.60002 19.9507Z" fill="#3180F7"/>
    <path d="M31.3473 9.82194V15.4417C31.3473 19.5723 29.4506 21.7921 25.6713 22.1152C25.7135 21.778 25.7275 21.4268 25.7275 21.0615V15.4417C25.7275 10.9599 23.4796 8.71202 18.9978 8.71202H10.0061C9.64082 8.71202 9.28958 8.72608 8.95239 8.76823C9.27553 4.98892 11.5094 3.09222 15.6259 3.09222H24.6176C29.0994 3.09222 31.3473 5.34015 31.3473 9.82194Z" fill="#3180F7"/>
</svg>
