<svg width="34" height="34" viewBox="0 0 34 34" fill="none" xmlns="http://www.w3.org/2000/svg">
    <path opacity="0.4" d="M25.2857 15.4408V21.0606C25.2857 21.4259 25.2717 21.7771 25.2295 22.1143C24.9064 25.9077 22.6725 27.7903 18.556 27.7903H17.994C17.6428 27.7903 17.3056 27.9589 17.0949 28.2399L15.4089 30.4878C14.6643 31.4853 13.4561 31.4853 12.7114 30.4878L11.0255 28.2399C10.8428 28.0011 10.4354 27.7903 10.1263 27.7903H9.56437C5.08259 27.7903 2.83466 26.6804 2.83466 21.0606V15.4408C2.83466 11.3243 4.73135 9.09047 8.51066 8.76733C8.84785 8.72518 9.19908 8.71112 9.56437 8.71112H18.556C23.0378 8.71112 25.2857 10.9591 25.2857 15.4408Z" fill="#E51B1B"/>
    <path d="M14.0615 19.9507C13.2747 19.9507 12.6566 19.3185 12.6566 18.5458C12.6566 17.773 13.2888 17.1408 14.0615 17.1408C14.8342 17.1408 15.4664 17.773 15.4664 18.5458C15.4664 19.3185 14.8482 19.9507 14.0615 19.9507Z" fill="#E51B1B"/>
    <path d="M18.9784 19.9507C18.1916 19.9507 17.5734 19.3185 17.5734 18.5458C17.5734 17.773 18.2057 17.1408 18.9784 17.1408C19.7511 17.1408 20.3833 17.773 20.3833 18.5458C20.3833 19.3185 19.7511 19.9507 18.9784 19.9507Z" fill="#E51B1B"/>
    <path d="M9.15782 19.9507C8.37105 19.9507 7.75287 19.3185 7.75287 18.5458C7.75287 17.773 8.3851 17.1408 9.15782 17.1408C9.93054 17.1408 10.5628 17.773 10.5628 18.5458C10.5628 19.3185 9.93054 19.9507 9.15782 19.9507Z" fill="#E51B1B"/>
    <path d="M30.9051 9.82194V15.4417C30.9051 19.5723 29.0084 21.7921 25.2291 22.1152C25.2713 21.778 25.2853 21.4268 25.2853 21.0615V15.4417C25.2853 10.9599 23.0374 8.71202 18.5556 8.71202H9.5639C9.19862 8.71202 8.84738 8.72608 8.51019 8.76823C8.83333 4.98892 11.0672 3.09222 15.1838 3.09222H24.1754C28.6572 3.09222 30.9051 5.34015 30.9051 9.82194Z" fill="#E51B1B"/>
</svg>
