<svg width="34" height="34" viewBox="0 0 34 34" fill="none" xmlns="http://www.w3.org/2000/svg">
    <path opacity="0.4" d="M25.4013 15.4408V21.0606C25.4013 21.4259 25.3873 21.7771 25.3451 22.1143C25.022 25.9077 22.7881 27.7903 18.6716 27.7903H18.1096C17.7584 27.7903 17.4212 27.9589 17.2105 28.2399L15.5245 30.4878C14.7799 31.4853 13.5717 31.4853 12.827 30.4878L11.1411 28.2399C10.9584 28.0011 10.551 27.7903 10.2419 27.7903H9.67997C5.19819 27.7903 2.95026 26.6804 2.95026 21.0606V15.4408C2.95026 11.3243 4.84695 9.09047 8.62626 8.76733C8.96345 8.72518 9.31468 8.71112 9.67997 8.71112H18.6716C23.1534 8.71112 25.4013 10.9591 25.4013 15.4408Z" fill="#004056"/>
    <path d="M14.1771 19.9507C13.3903 19.9507 12.7722 19.3185 12.7722 18.5458C12.7722 17.773 13.4044 17.1408 14.1771 17.1408C14.9498 17.1408 15.582 17.773 15.582 18.5458C15.582 19.3185 14.9638 19.9507 14.1771 19.9507Z" fill="#004056"/>
    <path d="M19.094 19.9507C18.3072 19.9507 17.689 19.3185 17.689 18.5458C17.689 17.773 18.3213 17.1408 19.094 17.1408C19.8667 17.1408 20.4989 17.773 20.4989 18.5458C20.4989 19.3185 19.8667 19.9507 19.094 19.9507Z" fill="#004056"/>
    <path d="M9.27339 19.9507C8.48662 19.9507 7.86844 19.3185 7.86844 18.5458C7.86844 17.773 8.50067 17.1408 9.27339 17.1408C10.0461 17.1408 10.6783 17.773 10.6783 18.5458C10.6783 19.3185 10.0461 19.9507 9.27339 19.9507Z" fill="#004056"/>
    <path d="M31.0207 9.82194V15.4417C31.0207 19.5723 29.124 21.7921 25.3447 22.1152C25.3869 21.778 25.4009 21.4268 25.4009 21.0615V15.4417C25.4009 10.9599 23.153 8.71202 18.6712 8.71202H9.6795C9.31422 8.71202 8.96298 8.72608 8.62579 8.76823C8.94893 4.98892 11.1828 3.09222 15.2994 3.09222H24.291C28.7728 3.09222 31.0207 5.34015 31.0207 9.82194Z" fill="#004056"/>
</svg>
