<svg width="35" height="34" viewBox="0 0 35 34" fill="none" xmlns="http://www.w3.org/2000/svg">
    <path opacity="0.4" d="M25.8436 15.4408V21.0606C25.8436 21.4259 25.8295 21.7771 25.7874 22.1143C25.4642 25.9077 23.2304 27.7903 19.1139 27.7903H18.5519C18.2007 27.7903 17.8635 27.9589 17.6527 28.2399L15.9668 30.4878C15.2222 31.4853 14.0139 31.4853 13.2693 30.4878L11.5833 28.2399C11.4007 28.0011 10.9933 27.7903 10.6842 27.7903H10.1222C5.64045 27.7903 3.39252 26.6804 3.39252 21.0606V15.4408C3.39252 11.3243 5.28921 9.09047 9.06852 8.76733C9.40571 8.72518 9.75694 8.71112 10.1222 8.71112H19.1139C23.5957 8.71112 25.8436 10.9591 25.8436 15.4408Z" fill="#009499"/>
    <path d="M14.6194 19.9507C13.8326 19.9507 13.2144 19.3185 13.2144 18.5458C13.2144 17.773 13.8466 17.1408 14.6194 17.1408C15.392 17.1408 16.0243 17.773 16.0243 18.5458C16.0243 19.3185 15.4061 19.9507 14.6194 19.9507Z" fill="#009499"/>
    <path d="M19.5362 19.9507C18.7495 19.9507 18.1313 19.3185 18.1313 18.5458C18.1313 17.773 18.7635 17.1408 19.5362 17.1408C20.309 17.1408 20.9412 17.773 20.9412 18.5458C20.9412 19.3185 20.309 19.9507 19.5362 19.9507Z" fill="#009499"/>
    <path d="M9.71568 19.9507C8.92891 19.9507 8.31073 19.3185 8.31073 18.5458C8.31073 17.773 8.94296 17.1408 9.71568 17.1408C10.4884 17.1408 11.1206 17.773 11.1206 18.5458C11.1206 19.3185 10.4884 19.9507 9.71568 19.9507Z" fill="#009499"/>
    <path d="M31.463 9.82194V15.4417C31.463 19.5723 29.5663 21.7921 25.787 22.1152C25.8291 21.778 25.8432 21.4268 25.8432 21.0615V15.4417C25.8432 10.9599 23.5953 8.71202 19.1135 8.71202H10.1218C9.75648 8.71202 9.40524 8.72608 9.06805 8.76823C9.39119 4.98892 11.6251 3.09222 15.7416 3.09222H24.7333C29.2151 3.09222 31.463 5.34015 31.463 9.82194Z" fill="#009499"/>
</svg>
