<svg width="22" height="22" viewBox="0 0 22 22" fill="none" xmlns="http://www.w3.org/2000/svg">
<path fillRule="evenodd" clipRule="evenodd" d="M3.54457 8.34131C3.91166 8.34131 4.20926 8.6389 4.20926 9.006V9.89225C4.20926 13.4409 7.08597 16.3176 10.6346 16.3176C14.1832 16.3176 17.0599 13.4409 17.0599 9.89225V9.006C17.0599 8.6389 17.3575 8.34131 17.7246 8.34131C18.0917 8.34131 18.3893 8.6389 18.3893 9.006V9.89225C18.3893 13.9511 15.2709 17.2817 11.2993 17.6188V19.641C11.2993 20.0081 11.0017 20.3057 10.6346 20.3057C10.2675 20.3057 9.96988 20.0081 9.96988 19.641V17.6188C5.99824 17.2817 2.87988 13.9511 2.87988 9.89225V9.006C2.87988 8.6389 3.17748 8.34131 3.54457 8.34131Z" fill="#C0C0C0"/>
<path opacity="0.5" d="M8.64094 7.23363C8.64094 6.86654 8.34334 6.56894 7.97625 6.56894H6.9269H5.58202C5.90772 4.06859 8.04586 2.1377 10.635 2.1377C13.2241 2.1377 15.3623 4.06859 15.688 6.56894H14.3431H11.9644C11.5973 6.56894 11.2997 6.86654 11.2997 7.23363C11.2997 7.60073 11.5973 7.89832 11.9644 7.89832H14.4016H15.7309V9.22769H14.4016H11.9644C11.5973 9.22769 11.2997 9.5253 11.2997 9.89238C11.2997 10.2595 11.5973 10.5571 11.9644 10.5571H14.3431H15.688C15.3623 13.0574 13.2241 14.9883 10.635 14.9883C8.04586 14.9883 5.90772 13.0574 5.58202 10.5571H6.9269H7.97625C8.34334 10.5571 8.64094 10.2595 8.64094 9.89238C8.64094 9.5253 8.34334 9.22769 7.97625 9.22769H6.86844H5.53906V7.89832H6.86844H7.97625C8.34334 7.89832 8.64094 7.60073 8.64094 7.23363Z" fill="#C0C0C0"/>
<path d="M11.2993 9.89223C11.2993 10.2593 11.5969 10.5569 11.964 10.5569H14.3427H15.6876L15.7306 9.22754H14.4012H11.964C11.5969 9.22754 11.2993 9.52514 11.2993 9.89223Z" fill="#C0C0C0"/>
<path d="M11.2993 7.23354C11.2993 7.60063 11.5969 7.89822 11.964 7.89822H14.4012H15.7306L15.6876 6.56885H14.3427H11.964C11.5969 6.56885 11.2993 6.86644 11.2993 7.23354Z" fill="#C0C0C0"/>
<path d="M8.64094 7.23354C8.64094 6.86644 8.34334 6.56885 7.97625 6.56885H6.9269H5.58202L5.53906 7.89822H6.86844H7.97625C8.34334 7.89822 8.64094 7.60063 8.64094 7.23354Z" fill="#C0C0C0"/>
<path d="M8.64094 9.89223C8.64094 9.52514 8.34334 9.22754 7.97625 9.22754H6.86844H5.53906L5.58202 10.5569H6.9269H7.97625C8.34334 10.5569 8.64094 10.2593 8.64094 9.89223Z" fill="#C0C0C0"/>
</svg>
