<svg width="25" height="25" viewBox="0 0 25 25" fill="none" xmlns="http://www.w3.org/2000/svg">
    <path d="M21.2557 8.76654C21.8236 9.3276 22.0684 10.0346 22.183 10.8737C22.2927 11.6825 22.2927 12.7106 22.2927 13.9855V14.0883C22.2927 15.3632 22.2927 16.3913 22.183 17.2001C22.0684 18.0393 21.8236 18.7462 21.2557 19.3073C20.6878 19.8683 19.973 20.1102 19.1231 20.2228C18.3055 20.3315 17.2646 20.3315 15.9741 20.3315H11.1517C9.86116 20.3315 8.82129 20.3315 8.0027 20.2228C7.15279 20.1102 6.43799 19.8683 5.87008 19.3073C5.53989 18.9771 5.29317 18.5729 5.15039 18.1284C6.00324 18.2331 7.05977 18.2331 8.27883 18.2331H13.1845C14.4388 18.2331 15.5198 18.2331 16.3863 18.1186C17.3136 17.9952 18.2037 17.7171 18.9253 17.0043C19.647 16.2914 19.928 15.4121 20.0523 14.4956C20.1698 13.6399 20.1698 12.5716 20.1688 11.331V11.1469C20.1688 9.94252 20.1688 8.89873 20.0611 8.05469C20.5116 8.20254 20.9111 8.42579 21.2557 8.76654ZM10.7316 9.60765C9.81906 9.60765 9.07979 10.3381 9.07979 11.2389C9.07979 12.1398 9.81906 12.8712 10.7316 12.8712C11.6432 12.8712 12.3825 12.1408 12.3825 11.2389C12.3825 10.3381 11.6432 9.60765 10.7316 9.60765Z" fill="white"/>
    <path fill-rule="evenodd" clip-rule="evenodd" d="M3.53834 6.46605C2.70898 7.28561 2.70898 8.60357 2.70898 11.2414C2.70898 13.8793 2.70898 15.1983 3.53834 16.0178C4.36769 16.8374 5.7023 16.8374 8.3715 16.8374H13.0911C15.7593 16.8374 17.0939 16.8374 17.9233 16.0178C18.7526 15.1983 18.7526 13.8793 18.7526 11.2414C18.7526 8.60357 18.7526 7.28561 17.9233 6.46605C17.0939 5.64648 15.7593 5.64648 13.0901 5.64648H8.3715C5.7023 5.64648 4.36671 5.64648 3.53834 6.46605ZM7.66357 11.2414C7.66357 9.56707 9.03734 8.21092 10.7313 8.21092C12.4253 8.21092 13.798 9.56805 13.798 11.2414C13.798 12.9148 12.4253 14.2729 10.7313 14.2729C9.03734 14.2729 7.66357 12.9158 7.66357 11.2414ZM15.9219 13.8069C15.5302 13.8069 15.2139 13.4935 15.2139 13.1068V9.37711C15.2139 8.99132 15.5302 8.67798 15.9219 8.67798C16.3135 8.67798 16.6298 8.99132 16.6298 9.37809V13.1087C16.628 13.295 16.5525 13.473 16.4199 13.6038C16.2872 13.7347 16.1082 13.8076 15.9219 13.8069ZM4.8328 13.1068C4.8328 13.4935 5.14907 13.8059 5.54073 13.8059C5.9324 13.8059 6.24769 13.4925 6.24769 13.1068V9.37711C6.24614 9.19081 6.17091 9.0127 6.03844 8.8817C5.90597 8.7507 5.72704 8.67746 5.54073 8.67798C5.14907 8.67798 4.8328 8.99132 4.8328 9.37809V13.1068Z" fill="white"/>
</svg>
