<svg width="23" height="23" viewBox="0 0 23 23" fill="none" xmlns="http://www.w3.org/2000/svg">
    <path fillRule="evenodd" clipRule="evenodd" d="M1.5249 4.19319H2.99403V5.93975H1.5249V17.2026H2.94515V18.8083H1.5249V22.8289H18.6268V0H1.5249V4.19319ZM6.3894 6.3135C6.43253 6.279 6.77896 6.02025 6.90259 5.92681L6.89397 5.92394C6.90547 5.91962 6.91122 5.91819 6.9184 5.91387C6.92559 5.90525 6.94859 5.88944 6.9529 5.88512L6.95865 5.89231C7.16853 5.76869 7.38559 5.68244 7.63284 5.64506C8.29697 5.54731 8.7814 6.23731 9.09622 6.63262C9.41103 7.02362 9.84803 7.6475 9.79484 8.07444C9.76322 8.33175 9.46853 8.56894 9.18965 8.80181L9.17959 8.78744C9.1034 8.86938 8.76703 9.21294 8.73828 9.25894C8.58447 9.51481 8.40765 10.0941 8.6549 10.5311C8.88921 10.9552 9.35209 11.6423 9.79053 12.2159C10.2534 12.7722 10.8212 13.3802 11.1806 13.7066C11.5572 14.0472 12.1768 14.0228 12.4672 13.9394C12.5232 13.9251 12.976 13.6562 13.035 13.6275C13.3354 13.4205 13.6387 13.202 13.9075 13.2351C14.3431 13.2897 14.8505 13.8589 15.1653 14.2514C15.4802 14.6452 16.0465 15.2749 15.7878 15.8786C15.6886 16.1072 15.5448 16.2898 15.3666 16.4608L15.3723 16.4666L15.3407 16.4896C15.335 16.4953 15.3321 16.5011 15.3321 16.5011L15.3263 16.5025C15.2085 16.5916 14.8606 16.8576 14.8175 16.8892C14.3345 17.2011 13.2851 17.5907 11.8102 16.7239C10.7163 16.0784 9.51596 14.9831 8.37028 13.6146L8.36453 13.6189C8.31134 13.5513 8.26103 13.4838 8.21071 13.4162C8.15753 13.3501 8.10147 13.2882 8.04684 13.2192L8.05259 13.2149C6.97734 11.7961 6.18672 10.3902 5.81584 9.19569C5.31703 7.58569 5.96247 6.693 6.3894 6.3135Z" fill="#004056"/>
    <path d="M1.40731 4.3125H0V5.7385H1.40731V4.3125Z" fill="#004056"/>
    <path d="M1.40444 17.25H0V18.6056H1.40444V17.25Z" fill="#004056"/>
    <path d="M21.4418 2.875H20.125V7.00781H21.4418V2.875Z" fill="#004056"/>
    <path d="M21.4001 15.8125H20.125V19.9051H21.4001V15.8125Z" fill="#004056"/>
    <path d="M21.4202 8.625H20.125V14.2241H21.4202V8.625Z" fill="#004056"/>
</svg>
