<?xml version="1.0" standalone="no"?>
<!DOCTYPE svg PUBLIC "-//W3C//DTD SVG 20010904//EN"
        "http://www.w3.org/TR/2001/REC-SVG-20010904/DTD/svg10.dtd">
<svg version="1.0" xmlns="http://www.w3.org/2000/svg"
     width="512.000000pt" height="512.000000pt" viewBox="0 0 512.000000 512.000000"
     preserveAspectRatio="xMidYMid meet">
    <metadata>
        Created by potrace 1.16, written by Peter Selinger 2001-2019
        Colorized by gradient fill
    </metadata>

    <!-- Pretty gradient definition -->
    <defs>
        <linearGradient id="rainbow" x1="0%" y1="0%" x2="100%" y2="100%">
            <stop offset="0%"   stop-color="#FF6B6B"/>
            <stop offset="25%"  stop-color="#FFD93D"/>
            <stop offset="50%"  stop-color="#6BCB77"/>
            <stop offset="75%"  stop-color="#4D96FF"/>
            <stop offset="100%" stop-color="#B86BFF"/>
        </linearGradient>
    </defs>

    <!-- Apply the gradient to everything inside -->
    <g transform="translate(0.000000,512.000000) scale(0.100000,-0.100000)"
       fill="url(#rainbow)" stroke="none">
        <path d="M2326 4479 c-93 -12 -173 -50 -227 -107 -40 -42 -41 -43 -7 -15 58
49 118 81 188 100 57 16 112 18 460 18 341 0 408 -3 490 -18 52 -10 114 -27
138 -37 23 -10 42 -17 42 -14 0 15 -102 46 -206 64 -104 17 -161 20 -464 19
-190 -1 -376 -6 -414 -10z"/>
        <path d="M2280 4406 c-82 -23 -146 -67 -189 -130 -42 -61 -50 -96 -61 -250 -5
-78 -12 -169 -16 -203 l-6 -63 -343 0 c-372 0 -392 -3 -463 -57 -59 -45 -78
-104 -106 -338 -39 -320 -56 -513 -63 -705 -9 -255 -1 -271 159 -310 117 -29
146 -43 163 -83 9 -20 14 -25 15 -14 1 52 -39 78 -165 107 -138 32 -155 53
-155 190 0 120 59 774 89 994 11 80 42 127 112 166 l44 25 350 6 c193 3 352 4
355 3 3 -1 -5 -139 -17 -306 -26 -350 -35 -933 -14 -900 6 10 10 7 15 -12 7
-28 -30 -1102 -40 -1165 -12 -74 36 -201 97 -258 57 -52 63 -53 564 -53 508 0
507 0 569 58 24 23 27 24 17 5 -18 -36 -91 -91 -141 -108 -41 -14 -109 -15
-487 -13 l-440 3 -69 35 c-46 23 -79 49 -101 78 -65 85 -63 52 -65 1067 -2
546 -6 902 -11 875 -5 -25 -11 -433 -14 -908 -4 -762 -3 -874 11 -964 33 -204
106 -303 267 -359 61 -21 82 -23 444 -27 429 -4 462 -1 587 65 90 47 152 108
189 186 24 52 32 89 44 203 8 76 15 156 15 176 l0 38 64 -32 63 -31 -5 -62
c-4 -52 -1 -66 15 -82 17 -17 18 -31 15 -159 -2 -77 1 -174 7 -215 12 -73 61
-199 79 -199 5 0 1 35 -9 78 -25 102 -24 112 11 170 32 50 60 138 59 182 0 14
-7 -3 -14 -36 -13 -61 -39 -120 -69 -159 -14 -18 -15 -8 -15 120 0 77 4 158 9
180 5 22 10 60 11 85 1 25 6 50 10 55 4 6 9 28 11 50 3 35 6 40 37 48 49 12
134 101 154 161 9 26 44 231 77 455 34 223 74 474 90 556 42 219 63 372 56
413 l-5 37 22 -45 c57 -116 23 -463 -104 -1065 -104 -492 -129 -587 -187 -700
-44 -83 -49 -97 -27 -70 57 69 105 209 164 475 130 593 193 973 195 1176 l1
131 -36 71 -36 70 30 61 c71 144 17 312 -119 372 -47 21 -161 38 -151 22 4 -6
27 -13 52 -16 90 -13 179 -83 205 -162 14 -44 9 -146 -10 -187 -16 -33 -26
-35 -35 -8 -12 36 -108 126 -165 152 -152 71 -273 59 -382 -40 l-41 -37 6 30
c19 90 78 750 75 820 -9 158 -100 259 -258 284 -96 16 -932 13 -990 -3z m1000
-37 c76 -16 140 -64 173 -129 27 -52 28 -60 24 -150 -3 -52 -15 -165 -26 -250
-38 -287 -102 -1025 -121 -1400 -18 -366 -89 -1153 -110 -1232 -13 -47 -55
-97 -97 -114 -41 -18 -935 -20 -996 -3 -50 14 -109 68 -138 127 -27 56 -27 34
-4 657 12 314 14 503 8 660 -5 158 -9 202 -14 155 -4 -45 -6 -53 -7 -25 -2 53
14 282 38 540 24 248 46 553 59 790 10 190 19 226 79 289 20 21 64 51 97 67
l60 29 462 0 c295 0 480 -4 513 -11z m569 -1056 c78 -40 116 -93 131 -183 17
-101 6 -190 -84 -675 -19 -104 -51 -300 -70 -435 -20 -135 -41 -268 -47 -297
-20 -102 -101 -172 -197 -173 -57 0 -98 19 -149 68 -57 55 -62 89 -35 222 28
135 118 636 137 762 18 115 19 199 5 248 -24 81 -29 130 -19 187 35 191 181
268 335 178 65 -38 78 -80 71 -223 -7 -114 -16 -175 -91 -579 -19 -105 -51
-308 -71 -449 -39 -276 -50 -315 -105 -347 -15 -10 -49 -17 -75 -17 -42 0 -52
5 -86 39 -47 47 -49 66 -19 257 21 139 23 161 14 151 -8 -7 -30 -114 -50 -235
-18 -111 -9 -158 37 -196 95 -80 230 -40 264 77 8 29 26 147 39 263 14 116 53
353 85 525 69 367 82 452 84 568 1 103 -21 156 -82 196 -52 35 -143 51 -199
36 -90 -25 -162 -122 -184 -249 -11 -64 -10 -74 15 -154 27 -87 34 -191 18
-263 -4 -18 -7 10 -7 66 1 90 -1 97 -28 133 -68 90 -85 210 -42 301 13 28 36
65 50 84 29 39 27 53 -5 25 l-22 -19 16 30 c24 48 72 85 136 106 51 17 171 2
230 -28z m-404 -809 c-14 -120 -35 -277 -46 -348 -12 -85 -17 -151 -13 -191 5
-49 0 -84 -25 -185 -36 -147 -36 -145 -13 -190 18 -34 18 -40 0 -225 -11 -104
-26 -213 -34 -242 -20 -72 -95 -152 -182 -195 l-67 -33 -475 0 c-417 0 -479 2
-511 16 -68 31 -135 104 -154 169 -7 21 -1 18 42 -22 28 -25 70 -57 94 -70
l44 -23 445 0 c431 0 447 1 502 22 80 30 121 64 157 132 35 66 37 78 81 481
36 331 99 1080 100 1190 0 9 16 -1 41 -26 l41 -41 -27 -219z m135 -1084 c0
-33 4 -60 10 -60 14 0 13 -87 -1 -96 -6 -3 -15 0 -20 7 -12 20 -11 209 1 209
6 0 10 -27 10 -60z"/>
        <path d="M2665 4320 c-397 -6 -390 -4 -463 -74 -64 -60 -71 -84 -87 -328 -9
-123 -32 -421 -51 -663 -20 -242 -37 -476 -38 -520 l-1 -80 620 -7 c546 -7
621 -6 631 7 6 8 14 59 18 113 31 427 76 902 117 1210 16 126 18 160 8 190
-18 55 -45 89 -96 119 -46 27 -46 27 -248 36 -27 1 -212 0 -410 -3z m620 -53
c92 -42 120 -91 112 -200 -4 -43 -9 -82 -12 -88 -4 -5 -244 -9 -622 -9 l-616
0 7 82 c8 93 35 151 87 189 68 48 75 49 554 46 409 -2 454 -4 490 -20z m77
-377 c-2 -25 -9 -106 -17 -180 -20 -190 -42 -433 -60 -655 -8 -104 -18 -216
-21 -249 l-6 -58 -539 3 c-454 4 -540 2 -544 -10 -3 -8 -4 -15 -3 -16 2 -2
245 -5 540 -7 295 -1 539 -6 542 -9 4 -3 4 -13 1 -20 -5 -12 -94 -14 -603 -11
-328 2 -598 5 -600 7 -1 1 13 198 32 436 19 239 40 511 46 604 6 94 13 180 16
193 l4 22 608 -2 607 -3 -3 -45z"/>
        <path d="M2670 4160 c-27 -17 1 -25 96 -28 77 -3 94 -1 94 11 0 10 -18 16 -67
20 -89 9 -105 8 -123 -3z"/>
        <path d="M3092 4128 c-7 -7 -12 -25 -12 -40 0 -40 39 -58 75 -34 44 29 28 86
-25 86 -14 0 -31 -5 -38 -12z m43 -38 c-3 -5 -10 -10 -16 -10 -5 0 -9 5 -9 10
0 6 7 10 16 10 8 0 12 -4 9 -10z"/>
        <path d="M2570 4091 c0 -27 13 -33 35 -17 21 15 12 36 -16 36 -12 0 -19 -7
-19 -19z"/>
        <path d="M2635 4091 c-10 -17 9 -20 131 -22 103 -1 119 1 122 15 3 14 -12 16
-122 16 -69 0 -127 -4 -131 -9z"/>
        <path d="M2096 2511 c10 -11 1094 -20 1094 -10 0 14 -162 19 -619 19 -305 0
-481 -4 -475 -9z"/>
        <path d="M2126 2417 c-9 -13 -16 -51 -18 -91 -3 -90 5 -96 133 -96 117 0 122
4 127 102 6 100 -3 108 -129 108 -91 0 -100 -2 -113 -23z m209 -14 c14 -13 16
-27 10 -67 -3 -28 -12 -57 -18 -63 -14 -15 -165 -22 -184 -10 -16 10 -17 110
-3 138 9 16 22 19 95 19 65 0 87 -4 100 -17z"/>
        <path d="M2196 2385 c-22 -22 -14 -30 13 -13 16 10 23 10 33 0 9 -9 9 -12 -4
-12 -9 0 -20 -9 -23 -20 -3 -11 -11 -20 -16 -20 -5 0 -9 -4 -9 -10 0 -5 23
-10 50 -10 43 0 50 3 50 20 0 11 -5 20 -11 20 -7 0 -9 10 -5 25 4 17 2 25 -6
25 -7 0 -22 3 -34 6 -13 3 -28 -1 -38 -11z m70 -63 c-22 -5 -30 3 -21 18 5 8
11 7 22 -2 15 -12 14 -13 -1 -16z"/>
        <path d="M2514 2433 c-34 -24 -43 -85 -18 -121 14 -20 24 -22 100 -22 l84 0 0
34 c0 18 -7 39 -15 46 -12 10 -13 6 -8 -23 l5 -34 -62 -6 c-75 -8 -90 1 -90
53 0 56 14 62 123 54 108 -8 110 -9 100 -96 -4 -35 -12 -52 -26 -59 -29 -16
-229 -8 -253 11 -10 7 -7 1 9 -16 27 -29 28 -29 142 -29 141 0 151 7 160 105
10 98 3 104 -132 108 -59 1 -113 -1 -119 -5z"/>
        <path d="M2830 2421 c-5 -11 -10 -54 -10 -95 0 -90 5 -95 113 -103 62 -5 75
-3 97 15 21 17 25 30 28 95 5 98 -6 107 -130 107 -76 0 -89 -2 -98 -19z m199
-26 c20 -20 6 -122 -19 -135 -29 -16 -123 -12 -148 6 -19 13 -22 24 -22 78 0
34 3 65 6 68 10 11 169 -4 183 -17z"/>
        <path d="M2909 2374 c-11 -14 -10 -18 6 -30 33 -24 55 -12 55 32 0 19 -44 18
-61 -2z m42 -17 c-13 -13 -26 -3 -16 12 3 6 11 8 17 5 6 -4 6 -10 -1 -17z"/>
        <path d="M2866 2322 c-11 -19 22 -33 70 -30 26 2 49 8 51 14 3 8 -13 10 -48 6
-35 -3 -54 -1 -59 8 -5 7 -10 8 -14 2z"/>
        <path d="M3117 2393 c-11 -18 -19 -123 -9 -123 5 0 13 27 17 61 7 56 4 81 -8
62z"/>
        <path d="M2550 2380 c0 -5 7 -10 15 -10 8 0 15 -4 15 -10 0 -5 -6 -10 -13 -10
-8 0 -14 -7 -14 -15 0 -18 24 -20 41 -2 18 18 2 57 -24 57 -11 0 -20 -4 -20
-10z"/>
        <path d="M2431 2334 c0 -11 3 -14 6 -6 3 7 2 16 -1 19 -3 4 -6 -2 -5 -13z"/>
        <path d="M2625 2340 c3 -5 11 -10 16 -10 6 0 7 5 4 10 -3 6 -11 10 -16 10 -6
0 -7 -4 -4 -10z"/>
        <path d="M2121 2191 c-24 -24 -39 -157 -22 -189 14 -26 60 -35 151 -30 96 5
111 21 118 121 4 71 3 74 -23 95 -24 19 -41 22 -116 22 -74 0 -92 -3 -108 -19z
m129 -11 c94 0 103 -9 93 -89 -9 -79 -18 -85 -116 -89 -107 -5 -117 3 -117 93
0 67 18 102 47 91 8 -3 50 -6 93 -6z"/>
        <path d="M2196 2134 c-10 -26 -7 -104 4 -104 6 0 10 27 10 60 0 62 -3 72 -14
44z"/>
        <path d="M2483 2201 c-33 -15 -43 -43 -43 -125 0 -99 9 -106 140 -106 88 0 98
2 118 23 19 20 22 35 22 104 0 53 -4 84 -13 91 -17 14 -197 24 -224 13z m207
-36 c16 -19 9 -127 -9 -149 -17 -20 -190 -23 -209 -4 -7 7 -12 40 -12 78 0 38
5 71 12 78 19 19 202 16 218 -3z"/>
        <path d="M2568 2112 c-23 -22 -40 -44 -36 -48 5 -4 17 1 28 11 15 14 23 16 32
7 17 -17 -7 -40 -45 -45 -22 -3 -15 -4 19 -5 49 -2 52 -1 52 23 0 13 -7 30
-15 36 -11 10 -11 15 3 30 34 38 4 30 -38 -9z"/>
        <path d="M2811 2191 c-16 -16 -21 -35 -23 -78 -5 -142 -3 -143 137 -143 92 0
125 8 125 30 0 3 -48 4 -106 2 -71 -2 -110 1 -120 9 -18 15 -20 139 -2 157 13
13 165 17 184 4 6 -4 16 -16 22 -27 11 -19 11 -18 12 6 0 41 -23 53 -120 57
-79 4 -90 2 -109 -17z"/>
        <path d="M2890 2118 c-36 -39 -19 -73 37 -71 22 1 45 -5 56 -14 21 -19 34 -11
14 8 -7 8 -17 28 -21 44 -15 59 -49 72 -86 33z m60 -18 c14 -26 5 -40 -25 -40
-13 0 -27 4 -30 10 -9 14 13 50 30 50 8 0 19 -9 25 -20z"/>
        <path d="M2111 1941 c-11 -11 -21 -31 -20 -43 1 -21 2 -20 11 5 10 27 10 27
108 27 112 0 110 1 110 -86 0 -89 -6 -94 -109 -94 -95 0 -114 9 -124 60 -3 16
-5 11 -6 -17 -2 -61 20 -73 135 -73 88 0 94 1 113 26 17 21 21 41 21 94 0 98
-11 109 -126 116 -84 6 -93 5 -113 -15z"/>
        <path d="M2458 1933 c-9 -11 -19 -48 -23 -90 -7 -68 -6 -73 19 -97 23 -24 32
-26 113 -26 48 0 94 4 101 9 16 10 31 71 32 124 0 29 -7 46 -29 68 -28 27 -34
29 -114 29 -67 0 -87 -3 -99 -17z m195 -31 c19 -17 23 -84 7 -126 -9 -25 -13
-26 -90 -26 -102 0 -120 14 -120 94 0 32 5 60 13 68 20 19 165 12 190 -10z"/>
        <path d="M2539 1876 c8 -10 9 -16 1 -21 -14 -9 -13 -28 3 -19 6 4 1 -5 -12
-19 l-24 -27 46 0 c56 0 67 14 37 45 -19 20 -21 27 -10 40 11 13 8 15 -20 15
-27 0 -30 -2 -21 -14z m46 -55 c7 -12 -12 -24 -25 -16 -11 7 -4 25 10 25 5 0
11 -4 15 -9z"/>
        <path d="M2796 1937 c-19 -14 -35 -77 -36 -144 0 -33 5 -46 26 -62 23 -18 41
-21 120 -21 123 0 134 9 134 113 0 95 -10 109 -86 118 -92 11 -139 10 -158 -4z
m214 -37 c6 -8 10 -39 10 -67 0 -41 -5 -58 -21 -74 -19 -19 -30 -21 -106 -17
-70 2 -87 6 -99 22 -16 23 -18 93 -4 132 l10 26 101 -4 c74 -3 103 -8 109 -18z"/>
        <path d="M2857 1884 c-16 -16 -5 -25 23 -19 36 8 38 -4 7 -33 -28 -27 -34 -27
-40 -4 -3 11 -5 8 -6 -9 -1 -31 13 -39 75 -39 49 0 49 -2 30 60 -12 41 -16 45
-47 48 -19 2 -38 0 -42 -4z m76 -64 c4 -16 0 -20 -19 -20 -22 0 -23 2 -12 20
7 11 16 20 19 20 4 0 9 -9 12 -20z"/>
        <path d="M2182 1841 c-18 -22 -32 -42 -32 -45 0 -3 27 -6 60 -6 33 0 60 2 60
6 0 9 -45 84 -51 84 -3 0 -20 -18 -37 -39z m59 -23 c9 -16 5 -18 -31 -18 l-42
0 24 28 c23 29 26 28 49 -10z"/>
        <path d="M2103 1676 c5 -16 46 -24 122 -24 76 0 131 11 105 21 -28 11 -230 13
-227 3z"/>
        <path d="M2472 1668 c3 -9 32 -14 86 -16 68 -2 82 0 82 13 0 12 -15 15 -86 15
-64 0 -85 -3 -82 -12z"/>
        <path d="M2787 1664 c-17 -17 13 -24 104 -24 91 0 122 9 83 24 -21 8 -179 8
-187 0z"/>
        <path d="M2173 1633 c-88 -5 -93 -11 -100 -122 -7 -100 -3 -103 131 -109 99
-4 104 -4 120 19 12 17 16 46 16 106 0 73 -2 83 -22 97 -12 9 -34 15 -48 14
-14 -1 -58 -4 -97 -5z m137 -38 c8 -10 10 -35 5 -84 l-7 -70 -40 -6 c-22 -4
-69 -4 -104 0 l-64 7 0 72 c0 43 5 77 12 84 18 18 182 16 198 -3z"/>
        <path d="M2215 1570 c-4 -7 -16 -10 -26 -7 -23 6 -26 -11 -3 -20 16 -6 52 22
42 32 -3 4 -9 1 -13 -5z"/>
        <path d="M2167 1498 l-28 -27 55 6 c39 4 60 2 72 -8 14 -12 16 -11 13 6 -3 15
-14 21 -41 23 -20 2 -38 9 -40 15 -2 7 -14 1 -31 -15z"/>
        <path d="M2459 1621 c-21 -16 -24 -30 -27 -98 -5 -104 6 -115 123 -121 111 -6
133 0 151 43 15 36 18 103 8 143 -10 37 -53 52 -147 52 -68 0 -89 -4 -108 -19z
m222 -32 c6 -13 9 -45 7 -77 -7 -77 -20 -86 -128 -77 -46 3 -90 11 -97 17 -17
14 -17 130 -1 146 8 8 47 12 110 12 89 0 98 -2 109 -21z"/>
        <path d="M2525 1561 c-3 -6 3 -14 12 -20 17 -9 16 -11 -5 -33 -12 -14 -22 -27
-22 -31 0 -10 108 -9 113 1 2 4 2 26 -1 50 l-4 42 -43 0 c-24 0 -46 -4 -50 -9z
m75 -11 c0 -5 -9 -10 -20 -10 -11 0 -20 5 -20 10 0 6 9 10 20 10 11 0 20 -4
20 -10z m8 -47 c2 -9 -7 -13 -27 -13 -21 0 -31 5 -31 16 0 19 51 16 58 -3z"/>
        <path d="M2806 1617 c-15 -11 -19 -32 -23 -104 -5 -86 -5 -91 18 -107 17 -12
46 -16 111 -16 105 0 112 7 122 114 5 67 -3 101 -28 118 -20 14 -181 9 -200
-5z m189 -21 c16 -11 17 -22 11 -86 -3 -40 -9 -76 -12 -81 -10 -17 -148 -10
-173 7 -22 16 -23 22 -18 86 3 37 9 73 12 78 9 15 158 12 180 -4z"/>
        <path d="M2860 1543 c0 -3 7 -15 16 -25 16 -16 16 -18 0 -24 -23 -9 -20 -31 7
-38 41 -11 50 -8 43 18 -4 15 0 28 9 36 8 7 15 17 15 23 0 5 -9 2 -21 -9 -21
-19 -21 -18 -39 4 -18 22 -30 28 -30 15z m50 -63 c0 -5 -9 -10 -21 -10 -11 0
-17 5 -14 10 3 6 13 10 21 10 8 0 14 -4 14 -10z"/>
        <path d="M2487 1332 c-23 -25 -23 -124 -1 -146 24 -24 145 -22 167 2 23 25 23
124 1 146 -24 24 -145 22 -167 -2z m152 -29 c5 -10 6 -36 2 -58 -6 -37 -9 -40
-43 -43 -20 -2 -51 1 -70 6 -37 9 -47 38 -29 85 10 25 15 27 70 27 47 0 62 -4
70 -17z"/>
        <path d="M2265 1330 c-3 -5 -1 -10 4 -10 7 0 11 -27 11 -70 0 -66 1 -71 26
-80 14 -6 43 -10 65 -10 44 0 51 16 20 44 -11 10 -25 32 -32 49 -28 72 -74
109 -94 77z"/>
        <path d="M2786 1318 c-14 -70 -15 -125 -3 -143 27 -35 44 -12 52 69 3 41 4 80
0 86 -12 19 -44 11 -49 -12z"/>
        <path d="M1150 3728 c-115 -69 -188 -221 -235 -489 -44 -246 -18 -570 50 -639
14 -14 14 -11 1 22 -45 106 -58 346 -31 550 39 298 136 502 268 567 28 14 35
21 22 21 -12 0 -45 -15 -75 -32z"/>
        <path d="M3876 3401 c28 -16 65 -46 82 -66 37 -41 42 -38 10 6 -24 32 -106 89
-129 89 -8 0 9 -13 37 -29z"/>
        <path d="M1750 2960 c-74 -21 -142 -79 -172 -147 -13 -30 -23 -95 -33 -229 -9
-103 -13 -189 -9 -193 8 -8 34 29 34 48 0 9 7 87 15 173 18 203 42 252 152
307 61 30 70 57 13 41z"/>
        <path d="M4171 2904 c20 -21 24 -38 27 -102 7 -151 -45 -653 -84 -807 -8 -33
-17 -69 -20 -80 -4 -16 -3 -17 5 -5 47 75 135 765 116 917 -6 51 -35 103 -57
103 -7 0 -1 -12 13 -26z"/>
        <path d="M1712 2817 c-15 -17 0 -39 22 -31 18 7 18 35 0 41 -6 2 -16 -2 -22
-10z"/>
        <path d="M1531 2324 c0 -11 3 -14 6 -6 3 7 2 16 -1 19 -3 4 -6 -2 -5 -13z"/>
        <path d="M1522 2230 c0 -14 2 -19 5 -12 2 6 2 18 0 25 -3 6 -5 1 -5 -13z"/>
        <path d="M1531 2182 c-2 -26 20 -52 58 -72 22 -11 49 -32 61 -47 21 -28 21
-28 14 -408 -8 -441 -1 -525 49 -618 42 -80 140 -155 237 -181 14 -4 -6 9 -45
28 -98 49 -139 87 -175 160 -28 57 -33 78 -41 197 -5 74 -8 285 -7 470 3 382
6 370 -80 413 -27 14 -53 35 -59 48 -7 13 -12 17 -12 10z"/>
    </g>
</svg>
