<svg width="24" height="23" viewBox="0 0 24 23" fill="none" xmlns="http://www.w3.org/2000/svg">
    <mask id="mask0_1211_9317" style="mask-type:luminance" maskUnits="userSpaceOnUse" x="2" y="1" width="20" height="21">
        <path d="M11.7493 21.0827C17.0422 21.0827 21.3327 16.7922 21.3327 11.4993C21.3327 6.20647 17.0422 1.91602 11.7493 1.91602C6.45647 1.91602 2.16602 6.20647 2.16602 11.4993C2.16602 13.0327 2.52635 14.4817 3.16556 15.7668C3.33614 16.108 3.39268 16.498 3.29397 16.867L2.72377 19.0002C2.66729 19.2113 2.66734 19.4336 2.72391 19.6447C2.78049 19.8558 2.89159 20.0483 3.04607 20.2028C3.20055 20.3574 3.39297 20.4686 3.60402 20.5253C3.81507 20.582 4.03733 20.5822 4.24847 20.5259L6.38172 19.9547C6.75201 19.8612 7.14373 19.9065 7.48285 20.0822C8.80818 20.7421 10.2688 21.0846 11.7493 21.0827Z" fill="white"/>
        <path d="M14.6257 11.4993C14.6257 11.7535 14.7266 11.9973 14.9063 12.177C15.0861 12.3567 15.3298 12.4577 15.584 12.4577C15.8382 12.4577 16.0819 12.3567 16.2616 12.177C16.4414 11.9973 16.5423 11.7535 16.5423 11.4993C16.5423 11.2452 16.4414 11.0014 16.2616 10.8217C16.0819 10.642 15.8382 10.541 15.584 10.541C15.3298 10.541 15.0861 10.642 14.9063 10.8217C14.7266 11.0014 14.6257 11.2452 14.6257 11.4993ZM10.7923 11.4993C10.7923 11.7535 10.8933 11.9973 11.073 12.177C11.2527 12.3567 11.4965 12.4577 11.7507 12.4577C12.0048 12.4577 12.2486 12.3567 12.4283 12.177C12.608 11.9973 12.709 11.7535 12.709 11.4993C12.709 11.2452 12.608 11.0014 12.4283 10.8217C12.2486 10.642 12.0048 10.541 11.7507 10.541C11.4965 10.541 11.2527 10.642 11.073 10.8217C10.8933 11.0014 10.7923 11.2452 10.7923 11.4993ZM6.95898 11.4993C6.95898 11.7535 7.05995 11.9973 7.23967 12.177C7.4194 12.3567 7.66315 12.4577 7.91732 12.4577C8.17148 12.4577 8.41524 12.3567 8.59496 12.177C8.77468 11.9973 8.87565 11.7535 8.87565 11.4993C8.87565 11.2452 8.77468 11.0014 8.59496 10.8217C8.41524 10.642 8.17148 10.541 7.91732 10.541C7.66315 10.541 7.4194 10.642 7.23967 10.8217C7.05995 11.0014 6.95898 11.2452 6.95898 11.4993Z" fill="black"/>
    </mask>
    <g mask="url(#mask0_1211_9317)">
        <path d="M0.25 0H23.25V23H0.25V0Z" fill="white"/>
    </g>
</svg>
