<svg width="597" height="82" viewBox="0 0 597 82" fill="none" xmlns="http://www.w3.org/2000/svg">
    <rect x="0.431187" y="1.09769" width="596.138" height="80.1269" rx="3.47077" fill="#B8B8B8" fill-opacity="0.06"/>
    <rect x="0.431187" y="1.09769" width="596.138" height="80.1269" rx="3.47077" stroke="#004056" stroke-width="0.862375" stroke-dasharray="6.9 6.9"/>
    <path d="M294.45 22.7307C294.159 22.7307 293.912 22.629 293.709 22.4255C293.506 22.2221 293.404 21.9751 293.404 21.6844V20.115H294.276V21.6844C294.276 21.7232 294.295 21.7619 294.334 21.8007C294.373 21.8394 294.411 21.8588 294.45 21.8588H301.076C301.115 21.8588 301.154 21.8394 301.193 21.8007C301.231 21.7619 301.251 21.7232 301.251 21.6844V20.115H302.123V21.6844C302.123 21.9751 302.021 22.2221 301.817 22.4255C301.614 22.629 301.367 22.7307 301.076 22.7307H294.45ZM297.327 20.4783V15.5958L295.889 17.0199L295.278 16.395L297.763 13.9102L300.248 16.395L299.638 17.0199L298.199 15.5958V20.4783H297.327Z" fill="#004056"/>
    <path d="M243.172 36.0898V35.39H244.742C245.16 35.39 245.526 35.3005 245.841 35.1215C246.156 34.937 246.4 34.6848 246.573 34.3647C246.752 34.0446 246.842 33.6757 246.842 33.258C246.842 32.8457 246.752 32.4795 246.573 32.1594C246.394 31.8393 246.147 31.5898 245.833 31.4107C245.518 31.2317 245.155 31.1422 244.742 31.1422H243.18V30.4424H244.759C245.171 30.4424 245.551 30.5129 245.898 30.654C246.251 30.795 246.554 30.993 246.809 31.248C247.07 31.503 247.27 31.8014 247.411 32.1431C247.558 32.4849 247.631 32.8592 247.631 33.2661C247.631 33.6676 247.558 34.0419 247.411 34.3891C247.27 34.7309 247.072 35.0292 246.817 35.2842C246.562 35.5392 246.259 35.7372 245.906 35.8783C245.559 36.0193 245.182 36.0898 244.775 36.0898H243.172ZM242.667 36.0898V30.4424H243.432V36.0898H242.667ZM248.561 36.0898V32.2245H249.293V36.0898H248.561ZM249.293 33.8846L249.016 33.7625C249.016 33.2688 249.13 32.8755 249.358 32.5826C249.586 32.2896 249.914 32.1431 250.343 32.1431C250.538 32.1431 250.715 32.1784 250.872 32.2489C251.029 32.314 251.176 32.4252 251.311 32.5826L250.831 33.0789C250.75 32.9921 250.66 32.9298 250.563 32.8918C250.465 32.8538 250.351 32.8348 250.221 32.8348C249.95 32.8348 249.727 32.9216 249.554 33.0952C249.38 33.2688 249.293 33.5319 249.293 33.8846ZM253.344 36.1712C252.991 36.1712 252.671 36.0844 252.383 35.9108C252.096 35.7318 251.868 35.4904 251.7 35.1866C251.537 34.8828 251.456 34.541 251.456 34.1612C251.456 33.7815 251.537 33.4397 251.7 33.1359C251.868 32.8321 252.093 32.5907 252.375 32.4117C252.663 32.2326 252.986 32.1431 253.344 32.1431C253.637 32.1431 253.897 32.2055 254.125 32.3303C254.358 32.4496 254.545 32.6178 254.686 32.8348C254.827 33.0464 254.906 33.2932 254.922 33.5753V34.739C254.906 35.0157 254.827 35.2625 254.686 35.4795C254.551 35.6965 254.366 35.8674 254.133 35.9922C253.905 36.1115 253.642 36.1712 253.344 36.1712ZM253.466 35.4795C253.829 35.4795 254.122 35.3575 254.344 35.1133C254.567 34.8638 254.678 34.5464 254.678 34.1612C254.678 33.8954 254.627 33.6649 254.524 33.4696C254.426 33.2688 254.285 33.1142 254.1 33.0057C253.916 32.8918 253.702 32.8348 253.457 32.8348C253.213 32.8348 252.996 32.8918 252.806 33.0057C252.622 33.1196 252.476 33.277 252.367 33.4777C252.264 33.673 252.212 33.8981 252.212 34.1531C252.212 34.4135 252.264 34.6441 252.367 34.8448C252.476 35.0401 252.625 35.1947 252.815 35.3086C253.004 35.4226 253.221 35.4795 253.466 35.4795ZM254.629 36.0898V35.0482L254.768 34.1043L254.629 33.1685V32.2245H255.37V36.0898H254.629ZM258.039 37.7906C257.643 37.7906 257.291 37.7174 256.981 37.5709C256.678 37.4244 256.433 37.2183 256.249 36.9524L256.721 36.4723C256.878 36.673 257.065 36.8249 257.282 36.928C257.499 37.0365 257.757 37.0908 258.055 37.0908C258.451 37.0908 258.763 36.985 258.991 36.7734C259.225 36.5672 259.341 36.2879 259.341 35.9352V34.975L259.471 34.1043L259.341 33.2417V32.2245H260.074V35.9352C260.074 36.3041 259.987 36.6269 259.813 36.9036C259.645 37.1803 259.406 37.3973 259.097 37.5546C258.793 37.7119 258.441 37.7906 258.039 37.7906ZM258.039 36.0247C257.687 36.0247 257.369 35.9407 257.087 35.7725C256.81 35.6043 256.591 35.3737 256.428 35.0808C256.265 34.7824 256.184 34.4488 256.184 34.0799C256.184 33.711 256.265 33.3827 256.428 33.0952C256.591 32.8023 256.81 32.5717 257.087 32.4035C257.369 32.2299 257.687 32.1431 258.039 32.1431C258.343 32.1431 258.612 32.2028 258.845 32.3222C259.078 32.4415 259.263 32.6097 259.398 32.8267C259.539 33.0383 259.615 33.2878 259.626 33.5753V34.6007C259.61 34.8828 259.531 35.1323 259.39 35.3493C259.254 35.5609 259.07 35.7264 258.837 35.8457C258.603 35.9651 258.338 36.0247 258.039 36.0247ZM258.186 35.3331C258.424 35.3331 258.633 35.2815 258.812 35.1784C258.997 35.0754 259.138 34.9316 259.235 34.7471C259.333 34.5573 259.382 34.3376 259.382 34.088C259.382 33.8385 259.33 33.6215 259.227 33.437C259.13 33.2471 258.991 33.1006 258.812 32.9976C258.633 32.8891 258.422 32.8348 258.178 32.8348C257.933 32.8348 257.719 32.8891 257.535 32.9976C257.35 33.1006 257.204 33.2471 257.095 33.437C256.992 33.6215 256.941 33.8357 256.941 34.0799C256.941 34.324 256.992 34.541 257.095 34.7309C257.204 34.9207 257.35 35.0699 257.535 35.1784C257.725 35.2815 257.942 35.3331 258.186 35.3331ZM264.485 36.1712C264.132 36.1712 263.812 36.0844 263.525 35.9108C263.237 35.7318 263.009 35.4904 262.841 35.1866C262.678 34.8828 262.597 34.541 262.597 34.1612C262.597 33.7815 262.678 33.4397 262.841 33.1359C263.009 32.8321 263.235 32.5907 263.517 32.4117C263.804 32.2326 264.127 32.1431 264.485 32.1431C264.778 32.1431 265.038 32.2055 265.266 32.3303C265.5 32.4496 265.687 32.6178 265.828 32.8348C265.969 33.0464 266.047 33.2932 266.064 33.5753V34.739C266.047 35.0157 265.969 35.2625 265.828 35.4795C265.692 35.6965 265.508 35.8674 265.274 35.9922C265.047 36.1115 264.783 36.1712 264.485 36.1712ZM264.607 35.4795C264.971 35.4795 265.264 35.3575 265.486 35.1133C265.708 34.8638 265.82 34.5464 265.82 34.1612C265.82 33.8954 265.768 33.6649 265.665 33.4696C265.567 33.2688 265.426 33.1142 265.242 33.0057C265.057 32.8918 264.843 32.8348 264.599 32.8348C264.355 32.8348 264.138 32.8918 263.948 33.0057C263.763 33.1196 263.617 33.277 263.509 33.4777C263.405 33.673 263.354 33.8981 263.354 34.1531C263.354 34.4135 263.405 34.6441 263.509 34.8448C263.617 35.0401 263.766 35.1947 263.956 35.3086C264.146 35.4226 264.363 35.4795 264.607 35.4795ZM265.771 36.0898V35.0482L265.909 34.1043L265.771 33.1685V32.2245H266.511V36.0898H265.771ZM270.312 36.0898V33.8357C270.312 33.5428 270.22 33.3014 270.035 33.1115C269.851 32.9216 269.612 32.8267 269.319 32.8267C269.124 32.8267 268.95 32.8701 268.798 32.9569C268.646 33.0437 268.527 33.163 268.44 33.3149C268.353 33.4668 268.31 33.6404 268.31 33.8357L268.009 33.6649C268.009 33.3719 268.074 33.1115 268.204 32.8836C268.334 32.6558 268.516 32.4768 268.749 32.3466C268.983 32.2109 269.246 32.1431 269.539 32.1431C269.832 32.1431 270.089 32.2164 270.312 32.3628C270.54 32.5093 270.719 32.7019 270.849 32.9406C270.979 33.1739 271.044 33.4234 271.044 33.6893V36.0898H270.312ZM267.578 36.0898V32.2245H268.31V36.0898H267.578ZM273.671 36.1712C273.313 36.1712 272.993 36.0844 272.711 35.9108C272.429 35.7318 272.204 35.4904 272.036 35.1866C271.873 34.8828 271.792 34.541 271.792 34.1612C271.792 33.7815 271.873 33.4397 272.036 33.1359C272.204 32.8321 272.429 32.5907 272.711 32.4117C272.993 32.2326 273.313 32.1431 273.671 32.1431C273.959 32.1431 274.219 32.2055 274.453 32.3303C274.686 32.4496 274.873 32.6178 275.014 32.8348C275.161 33.0464 275.242 33.2932 275.258 33.5753V34.739C275.242 35.0157 275.163 35.2625 275.022 35.4795C274.881 35.6965 274.694 35.8674 274.461 35.9922C274.227 36.1115 273.964 36.1712 273.671 36.1712ZM273.793 35.4795C274.038 35.4795 274.249 35.4226 274.428 35.3086C274.613 35.1947 274.756 35.0401 274.859 34.8448C274.963 34.6441 275.014 34.4162 275.014 34.1612C275.014 33.8954 274.96 33.6649 274.851 33.4696C274.748 33.2742 274.604 33.1196 274.42 33.0057C274.241 32.8918 274.029 32.8348 273.785 32.8348C273.541 32.8348 273.327 32.8918 273.142 33.0057C272.958 33.1196 272.811 33.277 272.703 33.4777C272.6 33.673 272.548 33.8981 272.548 34.1531C272.548 34.4135 272.6 34.6441 272.703 34.8448C272.811 35.0401 272.958 35.1947 273.142 35.3086C273.332 35.4226 273.549 35.4795 273.793 35.4795ZM275.706 36.0898H274.965V35.0482L275.104 34.1043L274.965 33.1685V30.2796H275.706V36.0898ZM279.099 36.0898V35.39H280.67C281.088 35.39 281.454 35.3005 281.769 35.1215C282.083 34.937 282.327 34.6848 282.501 34.3647C282.68 34.0446 282.769 33.6757 282.769 33.258C282.769 32.8457 282.68 32.4795 282.501 32.1594C282.322 31.8393 282.075 31.5898 281.76 31.4107C281.446 31.2317 281.082 31.1422 280.67 31.1422H279.108V30.4424H280.686C281.099 30.4424 281.478 30.5129 281.826 30.654C282.178 30.795 282.482 30.993 282.737 31.248C282.997 31.503 283.198 31.8014 283.339 32.1431C283.486 32.4849 283.559 32.8592 283.559 33.2661C283.559 33.6676 283.486 34.0419 283.339 34.3891C283.198 34.7309 283 35.0292 282.745 35.2842C282.49 35.5392 282.186 35.7372 281.834 35.8783C281.486 36.0193 281.109 36.0898 280.703 36.0898H279.099ZM278.595 36.0898V30.4424H279.36V36.0898H278.595ZM284.488 36.0898V32.2245H285.221V36.0898H284.488ZM285.221 33.8846L284.944 33.7625C284.944 33.2688 285.058 32.8755 285.286 32.5826C285.514 32.2896 285.842 32.1431 286.271 32.1431C286.466 32.1431 286.642 32.1784 286.799 32.2489C286.957 32.314 287.103 32.4252 287.239 32.5826L286.759 33.0789C286.677 32.9921 286.588 32.9298 286.49 32.8918C286.393 32.8538 286.279 32.8348 286.148 32.8348C285.877 32.8348 285.655 32.9216 285.481 33.0952C285.308 33.2688 285.221 33.5319 285.221 33.8846ZM289.393 36.1712C289.014 36.1712 288.672 36.0817 288.368 35.9027C288.064 35.7237 287.823 35.4822 287.644 35.1784C287.465 34.8692 287.375 34.5247 287.375 34.145C287.375 33.7706 287.465 33.4343 287.644 33.1359C287.823 32.8321 288.064 32.5907 288.368 32.4117C288.672 32.2326 289.014 32.1431 289.393 32.1431C289.768 32.1431 290.107 32.2326 290.41 32.4117C290.72 32.5853 290.964 32.824 291.143 33.1278C291.322 33.4316 291.411 33.7706 291.411 34.145C291.411 34.5247 291.322 34.8692 291.143 35.1784C290.964 35.4822 290.72 35.7237 290.41 35.9027C290.107 36.0817 289.768 36.1712 289.393 36.1712ZM289.393 35.4633C289.637 35.4633 289.854 35.4063 290.044 35.2924C290.234 35.1784 290.383 35.0238 290.492 34.8285C290.6 34.6278 290.655 34.3999 290.655 34.145C290.655 33.8954 290.598 33.673 290.484 33.4777C290.375 33.2824 290.226 33.1305 290.036 33.022C289.852 32.9081 289.637 32.8511 289.393 32.8511C289.149 32.8511 288.932 32.9081 288.742 33.022C288.552 33.1305 288.403 33.2824 288.295 33.4777C288.186 33.673 288.132 33.8954 288.132 34.145C288.132 34.3999 288.186 34.6278 288.295 34.8285C288.403 35.0238 288.552 35.1784 288.742 35.2924C288.932 35.4063 289.149 35.4633 289.393 35.4633ZM294.271 36.1712C293.978 36.1712 293.712 36.1115 293.473 35.9922C293.24 35.8674 293.053 35.6965 292.912 35.4795C292.771 35.2625 292.692 35.0157 292.676 34.739V33.5753C292.692 33.2932 292.771 33.0464 292.912 32.8348C293.058 32.6178 293.248 32.4496 293.482 32.3303C293.72 32.2055 293.983 32.1431 294.271 32.1431C294.624 32.1431 294.941 32.2326 295.223 32.4117C295.511 32.5907 295.736 32.8321 295.898 33.1359C296.061 33.4397 296.143 33.7815 296.143 34.1612C296.143 34.541 296.061 34.8828 295.898 35.1866C295.736 35.4904 295.511 35.7318 295.223 35.9108C294.941 36.0844 294.624 36.1712 294.271 36.1712ZM292.237 37.7092V32.2245H292.969V33.2417L292.831 34.1775L292.969 35.1215V37.7092H292.237ZM294.149 35.4795C294.393 35.4795 294.607 35.4226 294.792 35.3086C294.976 35.1947 295.123 35.0401 295.231 34.8448C295.34 34.6441 295.394 34.4135 295.394 34.1531C295.394 33.8981 295.34 33.6703 295.231 33.4696C295.123 33.2688 294.976 33.1142 294.792 33.0057C294.607 32.8918 294.396 32.8348 294.157 32.8348C293.913 32.8348 293.699 32.8918 293.514 33.0057C293.33 33.1142 293.186 33.2688 293.083 33.4696C292.98 33.6703 292.928 33.9008 292.928 34.1612C292.928 34.4162 292.977 34.6441 293.075 34.8448C293.178 35.0401 293.322 35.1947 293.506 35.3086C293.696 35.4226 293.91 35.4795 294.149 35.4795ZM300.309 36.1712C299.957 36.1712 299.637 36.0844 299.349 35.9108C299.062 35.7318 298.834 35.4904 298.666 35.1866C298.503 34.8828 298.421 34.541 298.421 34.1612C298.421 33.7815 298.503 33.4397 298.666 33.1359C298.834 32.8321 299.059 32.5907 299.341 32.4117C299.628 32.2326 299.951 32.1431 300.309 32.1431C300.602 32.1431 300.863 32.2055 301.091 32.3303C301.324 32.4496 301.511 32.6178 301.652 32.8348C301.793 33.0464 301.872 33.2932 301.888 33.5753V34.739C301.872 35.0157 301.793 35.2625 301.652 35.4795C301.516 35.6965 301.332 35.8674 301.099 35.9922C300.871 36.1115 300.608 36.1712 300.309 36.1712ZM300.431 35.4795C300.795 35.4795 301.088 35.3575 301.31 35.1133C301.533 34.8638 301.644 34.5464 301.644 34.1612C301.644 33.8954 301.592 33.6649 301.489 33.4696C301.392 33.2688 301.251 33.1142 301.066 33.0057C300.882 32.8918 300.667 32.8348 300.423 32.8348C300.179 32.8348 299.962 32.8918 299.772 33.0057C299.588 33.1196 299.441 33.277 299.333 33.4777C299.23 33.673 299.178 33.8981 299.178 34.1531C299.178 34.4135 299.23 34.6441 299.333 34.8448C299.441 35.0401 299.591 35.1947 299.78 35.3086C299.97 35.4226 300.187 35.4795 300.431 35.4795ZM301.595 36.0898V35.0482L301.733 34.1043L301.595 33.1685V32.2245H302.336V36.0898H301.595ZM303.402 36.0898V30.2796H304.134V36.0898H303.402ZM305.206 36.0898V30.2796H305.938V36.0898H305.206ZM310.468 36.1712C310.088 36.1712 309.744 36.0817 309.435 35.9027C309.131 35.7237 308.89 35.4822 308.711 35.1784C308.537 34.8692 308.45 34.5274 308.45 34.1531C308.45 33.7734 308.537 33.4316 308.711 33.1278C308.89 32.824 309.131 32.5853 309.435 32.4117C309.744 32.2326 310.088 32.1431 310.468 32.1431C310.767 32.1431 311.043 32.2001 311.298 32.314C311.553 32.4225 311.773 32.5826 311.957 32.7941L311.469 33.2824C311.35 33.1413 311.203 33.0355 311.03 32.965C310.862 32.8891 310.674 32.8511 310.468 32.8511C310.224 32.8511 310.007 32.9081 309.817 33.022C309.627 33.1305 309.478 33.2824 309.37 33.4777C309.261 33.673 309.207 33.8981 309.207 34.1531C309.207 34.4081 309.261 34.6332 309.37 34.8285C309.478 35.0238 309.627 35.1784 309.817 35.2924C310.007 35.4063 310.224 35.4633 310.468 35.4633C310.674 35.4633 310.862 35.428 311.03 35.3575C311.203 35.2815 311.353 35.173 311.477 35.032L311.957 35.5202C311.778 35.7264 311.559 35.8864 311.298 36.0003C311.043 36.1143 310.767 36.1712 310.468 36.1712ZM314.37 36.1712C313.99 36.1712 313.649 36.0817 313.345 35.9027C313.041 35.7237 312.8 35.4822 312.621 35.1784C312.442 34.8692 312.352 34.5247 312.352 34.145C312.352 33.7706 312.442 33.4343 312.621 33.1359C312.8 32.8321 313.041 32.5907 313.345 32.4117C313.649 32.2326 313.99 32.1431 314.37 32.1431C314.744 32.1431 315.084 32.2326 315.387 32.4117C315.697 32.5853 315.941 32.824 316.12 33.1278C316.299 33.4316 316.388 33.7706 316.388 34.145C316.388 34.5247 316.299 34.8692 316.12 35.1784C315.941 35.4822 315.697 35.7237 315.387 35.9027C315.084 36.0817 314.744 36.1712 314.37 36.1712ZM314.37 35.4633C314.614 35.4633 314.831 35.4063 315.021 35.2924C315.211 35.1784 315.36 35.0238 315.469 34.8285C315.577 34.6278 315.631 34.3999 315.631 34.145C315.631 33.8954 315.575 33.673 315.461 33.4777C315.352 33.2824 315.203 33.1305 315.013 33.022C314.829 32.9081 314.614 32.8511 314.37 32.8511C314.126 32.8511 313.909 32.9081 313.719 33.022C313.529 33.1305 313.38 33.2824 313.272 33.4777C313.163 33.673 313.109 33.8954 313.109 34.145C313.109 34.3999 313.163 34.6278 313.272 34.8285C313.38 35.0238 313.529 35.1784 313.719 35.2924C313.909 35.4063 314.126 35.4633 314.37 35.4633ZM319.948 36.0898V33.8357C319.948 33.5428 319.855 33.3014 319.671 33.1115C319.487 32.9216 319.248 32.8267 318.955 32.8267C318.76 32.8267 318.586 32.8701 318.434 32.9569C318.282 33.0437 318.163 33.163 318.076 33.3149C317.989 33.4668 317.946 33.6404 317.946 33.8357L317.645 33.6649C317.645 33.3719 317.71 33.1115 317.84 32.8836C317.97 32.6558 318.152 32.4768 318.385 32.3466C318.619 32.2109 318.882 32.1431 319.175 32.1431C319.468 32.1431 319.725 32.2164 319.948 32.3628C320.176 32.5093 320.355 32.7019 320.485 32.9406C320.615 33.1739 320.68 33.4234 320.68 33.6893V36.0898H319.948ZM317.213 36.0898V32.2245H317.946V36.0898H317.213ZM322.218 36.0898V30.6051H322.95V36.0898H322.218ZM321.266 32.8918V32.2245H323.902V32.8918H321.266ZM326.144 36.1712C325.792 36.1712 325.472 36.0844 325.184 35.9108C324.897 35.7318 324.669 35.4904 324.501 35.1866C324.338 34.8828 324.257 34.541 324.257 34.1612C324.257 33.7815 324.338 33.4397 324.501 33.1359C324.669 32.8321 324.894 32.5907 325.176 32.4117C325.464 32.2326 325.786 32.1431 326.144 32.1431C326.437 32.1431 326.698 32.2055 326.926 32.3303C327.159 32.4496 327.346 32.6178 327.487 32.8348C327.628 33.0464 327.707 33.2932 327.723 33.5753V34.739C327.707 35.0157 327.628 35.2625 327.487 35.4795C327.352 35.6965 327.167 35.8674 326.934 35.9922C326.706 36.1115 326.443 36.1712 326.144 36.1712ZM326.267 35.4795C326.63 35.4795 326.923 35.3575 327.145 35.1133C327.368 34.8638 327.479 34.5464 327.479 34.1612C327.479 33.8954 327.428 33.6649 327.324 33.4696C327.227 33.2688 327.086 33.1142 326.901 33.0057C326.717 32.8918 326.503 32.8348 326.258 32.8348C326.014 32.8348 325.797 32.8918 325.607 33.0057C325.423 33.1196 325.276 33.277 325.168 33.4777C325.065 33.673 325.013 33.8981 325.013 34.1531C325.013 34.4135 325.065 34.6441 325.168 34.8448C325.276 35.0401 325.426 35.1947 325.616 35.3086C325.805 35.4226 326.022 35.4795 326.267 35.4795ZM327.43 36.0898V35.0482L327.569 34.1043L327.43 33.1685V32.2245H328.171V36.0898H327.43ZM331.003 36.1712C330.623 36.1712 330.279 36.0817 329.969 35.9027C329.666 35.7237 329.424 35.4822 329.245 35.1784C329.072 34.8692 328.985 34.5274 328.985 34.1531C328.985 33.7734 329.072 33.4316 329.245 33.1278C329.424 32.824 329.666 32.5853 329.969 32.4117C330.279 32.2326 330.623 32.1431 331.003 32.1431C331.301 32.1431 331.578 32.2001 331.833 32.314C332.088 32.4225 332.308 32.5826 332.492 32.7941L332.004 33.2824C331.884 33.1413 331.738 33.0355 331.564 32.965C331.396 32.8891 331.209 32.8511 331.003 32.8511C330.759 32.8511 330.542 32.9081 330.352 33.022C330.162 33.1305 330.013 33.2824 329.904 33.4777C329.796 33.673 329.742 33.8981 329.742 34.1531C329.742 34.4081 329.796 34.6332 329.904 34.8285C330.013 35.0238 330.162 35.1784 330.352 35.2924C330.542 35.4063 330.759 35.4633 331.003 35.4633C331.209 35.4633 331.396 35.428 331.564 35.3575C331.738 35.2815 331.887 35.173 332.012 35.032L332.492 35.5202C332.313 35.7264 332.093 35.8864 331.833 36.0003C331.578 36.1143 331.301 36.1712 331.003 36.1712ZM333.765 36.0898V30.6051H334.497V36.0898H333.765ZM332.813 32.8918V32.2245H335.449V32.8918H332.813ZM340.594 36.0898V33.8357C340.594 33.5428 340.501 33.3014 340.317 33.1115C340.132 32.9216 339.894 32.8267 339.601 32.8267C339.405 32.8267 339.232 32.8701 339.08 32.9569C338.928 33.0437 338.809 33.163 338.722 33.3149C338.635 33.4668 338.592 33.6404 338.592 33.8357L338.291 33.6649C338.291 33.3719 338.356 33.1115 338.486 32.8836C338.616 32.6558 338.798 32.4768 339.031 32.3466C339.264 32.2109 339.528 32.1431 339.82 32.1431C340.113 32.1431 340.371 32.2082 340.594 32.3384C340.821 32.4686 341 32.6504 341.131 32.8836C341.261 33.1169 341.326 33.3855 341.326 33.6893V36.0898H340.594ZM337.859 36.0898V30.2796H338.592V36.0898H337.859ZM344.108 36.1712C343.723 36.1712 343.375 36.0844 343.066 35.9108C342.757 35.7318 342.513 35.4904 342.334 35.1866C342.155 34.8828 342.065 34.5383 342.065 34.1531C342.065 33.7734 342.152 33.4316 342.326 33.1278C342.505 32.824 342.743 32.5853 343.042 32.4117C343.346 32.2326 343.685 32.1431 344.059 32.1431C344.417 32.1431 344.732 32.2245 345.003 32.3873C345.28 32.55 345.494 32.7751 345.646 33.0627C345.803 33.3502 345.882 33.6757 345.882 34.0392C345.882 34.0934 345.879 34.1531 345.874 34.2182C345.868 34.2779 345.857 34.3484 345.841 34.4298H342.578V33.8195H345.45L345.182 34.0555C345.182 33.7951 345.136 33.5753 345.044 33.3963C344.951 33.2119 344.821 33.0708 344.653 32.9732C344.485 32.8701 344.281 32.8185 344.043 32.8185C343.793 32.8185 343.573 32.8728 343.384 32.9813C343.194 33.0898 343.047 33.2417 342.944 33.437C342.841 33.6323 342.789 33.8629 342.789 34.1287C342.789 34.3999 342.844 34.6386 342.952 34.8448C343.061 35.0455 343.215 35.2029 343.416 35.3168C343.617 35.4253 343.847 35.4795 344.108 35.4795C344.325 35.4795 344.523 35.4416 344.702 35.3656C344.886 35.2897 345.044 35.1757 345.174 35.0238L345.646 35.5039C345.461 35.7209 345.233 35.8864 344.962 36.0003C344.696 36.1143 344.412 36.1712 344.108 36.1712ZM346.68 36.0898V32.2245H347.413V36.0898H346.68ZM347.413 33.8846L347.136 33.7625C347.136 33.2688 347.25 32.8755 347.478 32.5826C347.706 32.2896 348.034 32.1431 348.462 32.1431C348.658 32.1431 348.834 32.1784 348.991 32.2489C349.149 32.314 349.295 32.4252 349.431 32.5826L348.951 33.0789C348.869 32.9921 348.78 32.9298 348.682 32.8918C348.585 32.8538 348.471 32.8348 348.34 32.8348C348.069 32.8348 347.847 32.9216 347.673 33.0952C347.499 33.2688 347.413 33.5319 347.413 33.8846ZM351.61 36.1712C351.224 36.1712 350.877 36.0844 350.568 35.9108C350.259 35.7318 350.015 35.4904 349.836 35.1866C349.657 34.8828 349.567 34.5383 349.567 34.1531C349.567 33.7734 349.654 33.4316 349.827 33.1278C350.006 32.824 350.245 32.5853 350.544 32.4117C350.847 32.2326 351.186 32.1431 351.561 32.1431C351.919 32.1431 352.233 32.2245 352.505 32.3873C352.781 32.55 352.996 32.7751 353.148 33.0627C353.305 33.3502 353.384 33.6757 353.384 34.0392C353.384 34.0934 353.381 34.1531 353.375 34.2182C353.37 34.2779 353.359 34.3484 353.343 34.4298H350.08V33.8195H352.952L352.684 34.0555C352.684 33.7951 352.638 33.5753 352.545 33.3963C352.453 33.2119 352.323 33.0708 352.155 32.9732C351.987 32.8701 351.783 32.8185 351.544 32.8185C351.295 32.8185 351.075 32.8728 350.885 32.9813C350.695 33.0898 350.549 33.2417 350.446 33.437C350.343 33.6323 350.291 33.8629 350.291 34.1287C350.291 34.3999 350.346 34.6386 350.454 34.8448C350.563 35.0455 350.717 35.2029 350.918 35.3168C351.119 35.4253 351.349 35.4795 351.61 35.4795C351.827 35.4795 352.025 35.4416 352.204 35.3656C352.388 35.2897 352.545 35.1757 352.676 35.0238L353.148 35.5039C352.963 35.7209 352.735 35.8864 352.464 36.0003C352.198 36.1143 351.913 36.1712 351.61 36.1712Z" fill="#616161"/>
    <path d="M296.246 45.7836C295.92 45.7836 295.627 45.7069 295.367 45.5534C295.107 45.4 294.9 45.1931 294.746 44.9327C294.593 44.6676 294.516 44.3723 294.516 44.0468C294.516 43.726 294.593 43.4377 294.746 43.1819C294.9 42.9215 295.107 42.7146 295.367 42.5611C295.627 42.4077 295.92 42.331 296.246 42.331C296.567 42.331 296.857 42.4077 297.118 42.5611C297.383 42.7099 297.592 42.9145 297.746 43.175C297.899 43.4354 297.976 43.726 297.976 44.0468C297.976 44.3723 297.899 44.6676 297.746 44.9327C297.592 45.1931 297.383 45.4 297.118 45.5534C296.857 45.7069 296.567 45.7836 296.246 45.7836ZM296.246 45.1768C296.455 45.1768 296.641 45.128 296.804 45.0303C296.967 44.9327 297.095 44.8001 297.188 44.6327C297.281 44.4607 297.327 44.2654 297.327 44.0468C297.327 43.8329 297.278 43.6423 297.181 43.4749C297.088 43.3075 296.96 43.1773 296.797 43.0843C296.639 42.9866 296.455 42.9378 296.246 42.9378C296.037 42.9378 295.851 42.9866 295.688 43.0843C295.525 43.1773 295.397 43.3075 295.304 43.4749C295.211 43.6423 295.165 43.8329 295.165 44.0468C295.165 44.2654 295.211 44.4607 295.304 44.6327C295.397 44.8001 295.525 44.9327 295.688 45.0303C295.851 45.128 296.037 45.1768 296.246 45.1768ZM298.683 45.7139V42.4007H299.311V45.7139H298.683ZM299.311 43.8236L299.074 43.719C299.074 43.2959 299.171 42.9587 299.367 42.7076C299.562 42.4565 299.843 42.331 300.211 42.331C300.378 42.331 300.529 42.3612 300.664 42.4216C300.799 42.4774 300.924 42.5728 301.041 42.7076L300.629 43.1331C300.559 43.0587 300.483 43.0052 300.399 42.9727C300.315 42.9401 300.218 42.9238 300.106 42.9238C299.873 42.9238 299.683 42.9982 299.534 43.147C299.385 43.2959 299.311 43.5214 299.311 43.8236Z" fill="#9E9E9E"/>
    <path d="M276.943 61.2383V60.4245H278.579C278.866 60.4245 279.089 60.335 279.246 60.156C279.403 59.977 279.482 59.7708 279.482 59.5375C279.482 59.3802 279.447 59.2337 279.376 59.0981C279.306 58.9625 279.203 58.854 279.067 58.7726C278.931 58.6912 278.769 58.6505 278.579 58.6505H276.943V57.8368H278.44C278.684 57.8368 278.88 57.7744 279.026 57.6496C279.173 57.5248 279.246 57.3404 279.246 57.0963C279.246 56.8521 279.173 56.6677 279.026 56.5429C278.88 56.4181 278.684 56.3557 278.44 56.3557H276.943V55.542H278.465C278.85 55.542 279.17 55.6125 279.425 55.7536C279.68 55.8946 279.87 56.0764 279.995 56.2988C280.119 56.5212 280.182 56.7599 280.182 57.0149C280.182 57.3133 280.098 57.5764 279.93 57.8042C279.767 58.0321 279.525 58.2165 279.205 58.3576L279.278 58.0646C279.637 58.2111 279.916 58.4173 280.117 58.6831C280.317 58.9489 280.418 59.2609 280.418 59.6189C280.418 59.9119 280.345 60.1804 280.198 60.4245C280.057 60.6687 279.845 60.8667 279.563 61.0186C279.287 61.165 278.945 61.2383 278.538 61.2383H276.943ZM276.3 61.2383V55.542H277.236V61.2383H276.3ZM281.24 61.2383V57.3323H282.135V61.2383H281.24ZM282.135 59.0656L281.826 58.9109C281.826 58.4173 281.935 58.0185 282.152 57.7147C282.374 57.4055 282.708 57.2509 283.153 57.2509C283.348 57.2509 283.524 57.2861 283.681 57.3567C283.839 57.4272 283.985 57.5411 284.121 57.6984L283.535 58.3006C283.464 58.2247 283.386 58.1704 283.299 58.1379C283.212 58.1053 283.112 58.089 282.998 58.089C282.748 58.089 282.542 58.1677 282.379 58.325C282.217 58.4824 282.135 58.7292 282.135 59.0656ZM286.225 61.3197C285.845 61.3197 285.501 61.2301 285.192 61.0511C284.882 60.8667 284.636 60.6198 284.451 60.3106C284.272 60.0014 284.183 59.6569 284.183 59.2771C284.183 58.8974 284.272 58.5556 284.451 58.2518C284.636 57.948 284.882 57.7066 285.192 57.5276C285.501 57.3431 285.845 57.2509 286.225 57.2509C286.61 57.2509 286.957 57.3404 287.267 57.5194C287.576 57.6984 287.82 57.9426 287.999 58.2518C288.184 58.5556 288.276 58.8974 288.276 59.2771C288.276 59.6569 288.184 60.0014 287.999 60.3106C287.82 60.6198 287.576 60.8667 287.267 61.0511C286.957 61.2301 286.61 61.3197 286.225 61.3197ZM286.225 60.4571C286.448 60.4571 286.643 60.4083 286.811 60.3106C286.985 60.2075 287.118 60.0665 287.21 59.8874C287.307 59.7084 287.356 59.505 287.356 59.2771C287.356 59.0493 287.307 58.8486 287.21 58.675C287.112 58.5014 286.979 58.3657 286.811 58.2681C286.643 58.165 286.448 58.1135 286.225 58.1135C286.008 58.1135 285.813 58.165 285.639 58.2681C285.471 58.3657 285.338 58.5014 285.24 58.675C285.148 58.8486 285.102 59.0493 285.102 59.2771C285.102 59.505 285.148 59.7084 285.24 59.8874C285.338 60.0665 285.471 60.2075 285.639 60.3106C285.813 60.4083 286.008 60.4571 286.225 60.4571ZM290.064 61.2383L288.494 57.3323H289.421L290.479 60.1723L290.202 60.1804L291.236 57.3323H291.757L292.79 60.1804L292.513 60.1723L293.571 57.3323H294.499L292.928 61.2383H292.408L291.35 58.5366H291.643L290.585 61.2383H290.064ZM296.242 61.3197C296.025 61.3197 295.816 61.2925 295.615 61.2383C295.415 61.1786 295.23 61.0972 295.062 60.9942C294.894 60.8857 294.747 60.7555 294.623 60.6036L295.192 60.0339C295.328 60.1912 295.482 60.3106 295.656 60.392C295.835 60.4679 296.036 60.5059 296.258 60.5059C296.459 60.5059 296.611 60.4761 296.714 60.4164C296.817 60.3567 296.869 60.2699 296.869 60.156C296.869 60.0366 296.82 59.9444 296.722 59.8793C296.624 59.8142 296.497 59.76 296.34 59.7166C296.188 59.6677 296.025 59.6189 295.851 59.5701C295.683 59.5213 295.52 59.4562 295.363 59.3748C295.211 59.288 295.086 59.1713 294.989 59.0249C294.891 58.8784 294.842 58.6885 294.842 58.4552C294.842 58.2057 294.899 57.9914 295.013 57.8124C295.133 57.6333 295.298 57.495 295.51 57.3974C295.727 57.2997 295.984 57.2509 296.283 57.2509C296.597 57.2509 296.874 57.3078 297.113 57.4218C297.357 57.5303 297.56 57.6957 297.723 57.9182L297.153 58.4878C297.039 58.3467 296.909 58.2409 296.763 58.1704C296.616 58.0999 296.448 58.0646 296.258 58.0646C296.079 58.0646 295.941 58.0918 295.843 58.146C295.746 58.2003 295.697 58.2789 295.697 58.382C295.697 58.4905 295.746 58.5746 295.843 58.6343C295.941 58.6939 296.066 58.7455 296.218 58.7889C296.375 58.8323 296.538 58.8811 296.706 58.9354C296.879 58.9842 297.042 59.0547 297.194 59.1469C297.351 59.2337 297.479 59.3531 297.577 59.505C297.674 59.6515 297.723 59.844 297.723 60.0827C297.723 60.4625 297.59 60.7636 297.324 60.986C297.058 61.2084 296.698 61.3197 296.242 61.3197ZM300.276 61.3197C299.885 61.3197 299.532 61.2329 299.218 61.0593C298.909 60.8802 298.662 60.6361 298.477 60.3269C298.298 60.0176 298.209 59.6704 298.209 59.2853C298.209 58.9001 298.298 58.5556 298.477 58.2518C298.656 57.9426 298.898 57.6984 299.202 57.5194C299.511 57.3404 299.853 57.2509 300.227 57.2509C300.59 57.2509 300.91 57.335 301.187 57.5031C301.469 57.6713 301.689 57.9019 301.846 58.1948C302.009 58.4878 302.09 58.8214 302.09 59.1958C302.09 59.2609 302.085 59.3287 302.074 59.3992C302.069 59.4643 302.058 59.5375 302.042 59.6189H298.835V58.8865H301.578L301.244 59.1795C301.233 58.9408 301.187 58.7401 301.106 58.5773C301.024 58.4145 300.908 58.2898 300.756 58.203C300.609 58.1162 300.428 58.0728 300.211 58.0728C299.983 58.0728 299.785 58.1216 299.617 58.2192C299.448 58.3169 299.318 58.4552 299.226 58.6343C299.134 58.8079 299.088 59.0167 299.088 59.2609C299.088 59.505 299.136 59.7193 299.234 59.9037C299.332 60.0882 299.47 60.2319 299.649 60.335C299.828 60.4327 300.034 60.4815 300.268 60.4815C300.468 60.4815 300.653 60.4462 300.821 60.3757C300.994 60.3052 301.141 60.2021 301.26 60.0665L301.83 60.6442C301.64 60.8667 301.41 61.0348 301.138 61.1488C300.867 61.2627 300.579 61.3197 300.276 61.3197ZM304.559 61.2383V55.542H305.495V61.2383H304.559ZM305.202 58.797V57.9426H308.099V58.797H305.202ZM305.202 56.3964V55.542H308.237V56.3964H305.202ZM309.054 61.2383V57.3323H309.949V61.2383H309.054ZM309.502 56.6162C309.35 56.6162 309.222 56.5646 309.119 56.4615C309.022 56.3585 308.973 56.231 308.973 56.0791C308.973 55.9272 309.022 55.7997 309.119 55.6966C309.222 55.5935 309.35 55.542 309.502 55.542C309.659 55.542 309.787 55.5935 309.884 55.6966C309.982 55.7997 310.031 55.9272 310.031 56.0791C310.031 56.231 309.982 56.3585 309.884 56.4615C309.787 56.5646 309.659 56.6162 309.502 56.6162ZM310.953 61.2383V55.3792H311.849V61.2383H310.953ZM314.659 61.3197C314.269 61.3197 313.916 61.2329 313.602 61.0593C313.292 60.8802 313.045 60.6361 312.861 60.3269C312.682 60.0176 312.593 59.6704 312.593 59.2853C312.593 58.9001 312.682 58.5556 312.861 58.2518C313.04 57.9426 313.281 57.6984 313.585 57.5194C313.895 57.3404 314.236 57.2509 314.611 57.2509C314.974 57.2509 315.294 57.335 315.571 57.5031C315.853 57.6713 316.073 57.9019 316.23 58.1948C316.393 58.4878 316.474 58.8214 316.474 59.1958C316.474 59.2609 316.469 59.3287 316.458 59.3992C316.452 59.4643 316.442 59.5375 316.425 59.6189H313.219V58.8865H315.961L315.628 59.1795C315.617 58.9408 315.571 58.7401 315.489 58.5773C315.408 58.4145 315.291 58.2898 315.14 58.203C314.993 58.1162 314.811 58.0728 314.594 58.0728C314.366 58.0728 314.168 58.1216 314 58.2192C313.832 58.3169 313.702 58.4552 313.61 58.6343C313.517 58.8079 313.471 59.0167 313.471 59.2609C313.471 59.505 313.52 59.7193 313.618 59.9037C313.715 60.0882 313.854 60.2319 314.033 60.335C314.212 60.4327 314.418 60.4815 314.651 60.4815C314.852 60.4815 315.036 60.4462 315.205 60.3757C315.378 60.3052 315.525 60.2021 315.644 60.0665L316.214 60.6442C316.024 60.8667 315.793 61.0348 315.522 61.1488C315.251 61.2627 314.963 61.3197 314.659 61.3197ZM318.469 61.3197C318.252 61.3197 318.043 61.2925 317.843 61.2383C317.642 61.1786 317.458 61.0972 317.289 60.9942C317.121 60.8857 316.975 60.7555 316.85 60.6036L317.42 60.0339C317.555 60.1912 317.71 60.3106 317.883 60.392C318.062 60.4679 318.263 60.5059 318.486 60.5059C318.686 60.5059 318.838 60.4761 318.941 60.4164C319.044 60.3567 319.096 60.2699 319.096 60.156C319.096 60.0366 319.047 59.9444 318.949 59.8793C318.852 59.8142 318.724 59.76 318.567 59.7166C318.415 59.6677 318.252 59.6189 318.079 59.5701C317.91 59.5213 317.748 59.4562 317.59 59.3748C317.439 59.288 317.314 59.1713 317.216 59.0249C317.118 58.8784 317.07 58.6885 317.07 58.4552C317.07 58.2057 317.127 57.9914 317.241 57.8124C317.36 57.6333 317.525 57.495 317.737 57.3974C317.954 57.2997 318.212 57.2509 318.51 57.2509C318.825 57.2509 319.101 57.3078 319.34 57.4218C319.584 57.5303 319.788 57.6957 319.95 57.9182L319.381 58.4878C319.267 58.3467 319.137 58.2409 318.99 58.1704C318.844 58.0999 318.675 58.0646 318.486 58.0646C318.307 58.0646 318.168 58.0918 318.071 58.146C317.973 58.2003 317.924 58.2789 317.924 58.382C317.924 58.4905 317.973 58.5746 318.071 58.6343C318.168 58.6939 318.293 58.7455 318.445 58.7889C318.602 58.8323 318.765 58.8811 318.933 58.9354C319.107 58.9842 319.269 59.0547 319.421 59.1469C319.579 59.2337 319.706 59.3531 319.804 59.505C319.901 59.6515 319.95 59.844 319.95 60.0827C319.95 60.4625 319.817 60.7636 319.552 60.986C319.286 61.2084 318.925 61.3197 318.469 61.3197Z" fill="#004056"/>
</svg>
