<svg width="36" height="35" viewBox="0 0 36 35" fill="none" xmlns="http://www.w3.org/2000/svg">
    <circle cx="17.9077" cy="17.75" r="14" fill="#FBFBFE"/>
    <circle cx="17.6577" cy="18.75" r="7.5" fill="#505050"/>
    <circle cx="17.6577" cy="13.75" r="3.75" fill="#505050"/>
    <path fillRule="evenodd" clipRule="evenodd" d="M27.6577 17.5C27.6577 20.1522 26.6041 22.6957 24.7288 24.5711C22.8534 26.4464 20.3099 27.5 17.6577 27.5C15.0055 27.5 12.462 26.4464 10.5866 24.5711C8.71128 22.6957 7.65771 20.1522 7.65771 17.5C7.65771 14.8478 8.71128 12.3043 10.5866 10.4289C12.462 8.55357 15.0055 7.5 17.6577 7.5C20.3099 7.5 22.8534 8.55357 24.7288 10.4289C26.6041 12.3043 27.6577 14.8478 27.6577 17.5ZM20.1577 13.75C20.1577 14.413 19.8943 15.0489 19.4255 15.5178C18.9566 15.9866 18.3208 16.25 17.6577 16.25C16.9947 16.25 16.3588 15.9866 15.8899 15.5178C15.4211 15.0489 15.1577 14.413 15.1577 13.75C15.1577 13.087 15.4211 12.4511 15.8899 11.9822C16.3588 11.5134 16.9947 11.25 17.6577 11.25C18.3208 11.25 18.9566 11.5134 19.4255 11.9822C19.8943 12.4511 20.1577 13.087 20.1577 13.75ZM17.6577 18.75C16.461 18.7498 15.2893 19.0931 14.282 19.7393C13.2747 20.3854 12.474 21.3072 11.9752 22.395C12.6786 23.2133 13.5506 23.8697 14.5314 24.3193C15.5122 24.769 16.5787 25.0012 17.6577 25C18.7367 25.0012 19.8032 24.769 20.784 24.3193C21.7649 23.8697 22.6369 23.2133 23.3402 22.395C22.8414 21.3072 22.0408 20.3854 21.0334 19.7393C20.0261 19.0931 18.8545 18.7498 17.6577 18.75Z" fill="#FBFBFE"/>
</svg>
