<svg width="19" height="18" viewBox="0 0 19 18" fill="none" xmlns="http://www.w3.org/2000/svg">
<path opacity="0.5" d="M8.65831 17.8639H10.6192C13.6741 17.8639 15.2016 17.8639 16.2432 16.9671C17.2847 16.0702 17.5007 14.569 17.9328 11.5663L18.1798 9.84914C18.5162 7.51165 18.6844 6.34295 18.2053 5.34369C17.7263 4.34443 16.7066 3.73702 14.6673 2.52222L13.4397 1.79099C11.5879 0.687818 10.6619 0.13623 9.63874 0.13623C8.61559 0.13623 7.68962 0.687818 5.8377 1.79099L4.6102 2.52221C2.57088 3.73702 1.55122 4.34443 1.07217 5.34369C0.593111 6.34295 0.761276 7.51165 1.09761 9.84914L1.3447 11.5663C1.77673 14.569 1.99276 16.0702 3.03432 16.9671C4.07587 17.8639 5.60336 17.8639 8.65831 17.8639Z" fill="#214635"/>
</svg>
