<svg width="105" height="105" viewBox="0 0 105 105" fill="none" xmlns="http://www.w3.org/2000/svg">
<path d="M21.2989 41.8618C21.2989 40.1097 22.7081 38.6895 24.4465 38.6895H41.2336C42.972 38.6895 44.3812 40.1097 44.3812 41.8618C44.3812 43.6138 42.972 45.0342 41.2336 45.0342H24.4465C22.7081 45.0342 21.2989 43.6138 21.2989 41.8618Z" fill="#004056"/>
<path fillRule="evenodd" clipRule="evenodd" d="M92.2579 43.5586C91.987 43.5418 91.6918 43.5419 91.3857 43.542H91.3095H79.3107C69.4207 43.542 60.9584 51.1013 60.9584 60.9587C60.9584 70.8161 69.4207 78.3753 79.3107 78.3753H91.3095H91.3857C91.6918 78.3753 91.987 78.3753 92.2579 78.3588C96.275 78.1128 99.828 75.0601 100.127 70.7965C100.146 70.5169 100.146 70.2156 100.146 69.9365V69.8603V52.057V51.9808C100.146 51.7017 100.146 51.4004 100.127 51.1209C99.828 46.8573 96.275 43.8046 92.2579 43.5586ZM78.247 65.6033C80.7933 65.6033 82.8572 63.5237 82.8572 60.9587C82.8572 58.3936 80.7933 56.3141 78.247 56.3141C75.7007 56.3141 73.6368 58.3936 73.6368 60.9587C73.6368 63.5237 75.7007 65.6033 78.247 65.6033Z" fill="#004056"/>
<path opacity="0.5" d="M92.0445 43.5479C92.0445 38.4074 91.8577 32.8931 88.5716 28.94C88.2542 28.5584 87.9168 28.1879 87.5571 27.8282C84.2984 24.5697 80.1663 23.1236 75.0615 22.4373C70.1013 21.7704 63.7633 21.7705 55.7612 21.7705H46.5618C38.5598 21.7705 32.2217 21.7704 27.2614 22.4373C22.1565 23.1236 18.0246 24.5697 14.7661 27.8282C11.5076 31.0867 10.0615 35.2186 9.37517 40.3235C8.70824 45.2839 8.70833 51.6218 8.70837 59.6239V60.115C8.70833 68.1171 8.70824 74.4551 9.37517 79.4153C10.0615 84.5202 11.5076 88.6523 14.7661 91.9109C18.0246 95.1691 22.1565 96.6152 27.2614 97.3018C32.2217 97.9684 38.5597 97.9684 46.5613 97.9684H55.7612C63.7633 97.9684 70.1013 97.9684 75.0615 97.3018C80.1663 96.6152 84.2984 95.1691 87.5571 91.9109C88.4475 91.0201 89.2038 90.063 89.8465 89.0363C91.8081 85.9035 92.0445 82.064 92.0445 78.3682C91.8346 78.3747 91.6134 78.3747 91.3862 78.3747H79.3107C69.4207 78.3747 60.9584 70.8154 60.9584 60.958C60.9584 51.1006 69.4207 43.5413 79.3107 43.5413H91.3857C91.613 43.5413 91.8346 43.5412 92.0445 43.5479Z" fill="#004056"/>
<path d="M43.9827 11.1991L34.8328 17.3838L27.2858 22.4339C32.2424 21.7704 38.5727 21.7705 46.5613 21.7705H55.7608C63.7629 21.7704 70.1008 21.7704 75.061 22.4373C76.059 22.5714 77.0196 22.7346 77.9435 22.9347L69.6662 17.4163L60.4681 11.1991C55.5539 7.87766 48.8969 7.87766 43.9827 11.1991Z" fill="#004056"/>
</svg>
